<svg width="70" height="70" viewBox="0 0 70 70" fill="none" xmlns="http://www.w3.org/2000/svg">
<rect width="70" height="70" fill="white"/>
<path d="M44.6145 33.7708C44.5758 43.3727 40.4797 53.2858 32.0169 57.7952C26.066 60.9829 12 63.432 12 53.0525C12 53.0525 12 14.4501 12 14.4113C12 8.65785 16.8303 6.753 21.6607 7.02512C28.8483 7.41386 35.7267 10.7959 39.9 17.0159C42.5664 20.9811 44.0349 25.7627 44.4986 30.5831C44.5372 31.6715 44.6145 32.7212 44.6145 33.7708Z" fill="url(#paint0_linear_104_937)"/>
<path d="M57.9504 30.3872C57.139 22.4569 52.3085 15.8093 45.6234 11.8053C41.1794 9.12292 35.6149 8.46206 32.7168 13.8267C32.7168 13.8656 13.2021 49.9411 13.2021 49.9411C11.5018 53.0899 11.8883 55.6946 13.434 57.8326C15.7525 61.0204 20.351 62.4588 24.0993 62.8475C27.5772 63.2362 31.0937 62.8475 34.4557 62.0701C44.6187 59.7375 53.6224 52.779 56.6752 42.6716C57.8732 38.7064 58.3755 34.5468 57.9504 30.3872Z" fill="url(#paint1_linear_104_937)"/>
<path d="M32.0168 57.8316C40.4796 53.2833 44.5757 43.3703 44.6143 33.8071C44.6143 32.7576 44.5757 31.7079 44.4598 30.6583C44.0347 25.8379 42.5277 21.0563 39.8613 17.0911C38.3929 14.8753 36.5766 13.0482 34.5285 11.5321C33.8716 12.1152 33.2534 12.8927 32.751 13.8646C32.751 13.9035 13.2364 49.979 13.2364 49.979C11.9612 52.3115 11.8839 54.3717 12.5409 56.16C12.5409 56.199 12.5795 56.2377 12.5795 56.2766C12.6182 56.3545 12.6568 56.4711 12.6954 56.5488C12.7341 56.6266 12.7341 56.6653 12.7727 56.7432C12.7727 56.7819 12.8114 56.8209 12.8114 56.8209C15.8642 62.7298 26.916 60.5528 32.0168 57.8316Z" fill="#E23B7B"/>
<defs>
<linearGradient id="paint0_linear_104_937" x1="28.2247" y1="22.8556" x2="28.2247" y2="39.6439" gradientUnits="userSpaceOnUse">
<stop stop-color="#7047EB"/>
<stop offset="1" stop-color="#A244FF"/>
</linearGradient>
<linearGradient id="paint1_linear_104_937" x1="50.9471" y1="15.6121" x2="27.7461" y2="60.2963" gradientUnits="userSpaceOnUse">
<stop stop-color="#FF9B53"/>
<stop offset="1" stop-color="#FF698F"/>
</linearGradient>
</defs>
</svg>
