<svg width="25" height="31" viewBox="0 0 25 31" fill="none" xmlns="http://www.w3.org/2000/svg">
<path d="M17.6874 14.5179C17.6664 19.7251 15.445 25.101 10.8555 27.5464C7.62821 29.2751 0 30.6033 0 24.9744C0 24.9744 0 4.04024 0 4.01916C0 0.899058 2.61957 -0.133951 5.23915 0.0136212C9.1371 0.224439 12.8674 2.05855 15.1306 5.43165C16.5767 7.58199 17.3731 10.1751 17.6245 12.7892C17.6455 13.3795 17.6874 13.9487 17.6874 14.5179Z" fill="url(#paint0_linear_506_1553)"/>
<path d="M24.9192 12.6832C24.4791 8.38251 21.8595 4.77753 18.2341 2.6061C15.824 1.15146 12.8063 0.793072 11.2346 3.70236C11.2346 3.72344 0.65143 23.2873 0.65143 23.2873C-0.270661 24.9949 -0.0610932 26.4074 0.777171 27.5669C2.03457 29.2957 4.5284 30.0757 6.56119 30.2865C8.44726 30.4973 10.3544 30.2865 12.1776 29.8649C17.6892 28.6 22.572 24.8263 24.2276 19.345C24.8773 17.1947 25.1497 14.9389 24.9192 12.6832Z" fill="url(#paint1_linear_506_1553)"/>
<path d="M10.8555 27.5662C15.445 25.0996 17.6664 19.7237 17.6873 14.5376C17.6873 13.9685 17.6664 13.3992 17.6035 12.83C17.3729 10.2159 16.5557 7.62283 15.1096 5.47249C14.3133 4.27082 13.3283 3.27999 12.2176 2.45779C11.8613 2.77402 11.5261 3.19566 11.2536 3.7227C11.2536 3.74378 0.670555 23.3077 0.670555 23.3077C-0.0210126 24.5726 -0.0629297 25.6899 0.293333 26.6597C0.293333 26.6808 0.31429 26.7018 0.31429 26.7229C0.335247 26.7651 0.356201 26.8284 0.377158 26.8705C0.398114 26.9127 0.398117 26.9337 0.419073 26.9759C0.419073 26.997 0.440031 27.0181 0.440031 27.0181C2.09561 30.2225 8.0892 29.0419 10.8555 27.5662Z" fill="#E23B7B"/>
<defs>
<linearGradient id="paint0_linear_506_1553" x1="8.7989" y1="8.59858" x2="8.7989" y2="17.7029" gradientUnits="userSpaceOnUse">
<stop stop-color="#7047EB"/>
<stop offset="1" stop-color="#A244FF"/>
</linearGradient>
<linearGradient id="paint1_linear_506_1553" x1="21.1212" y1="4.67058" x2="8.53937" y2="28.9032" gradientUnits="userSpaceOnUse">
<stop stop-color="#FF9B53"/>
<stop offset="1" stop-color="#FF698F"/>
</linearGradient>
</defs>
</svg>
