<svg width="28" height="34" viewBox="0 0 28 34" fill="none" xmlns="http://www.w3.org/2000/svg">
<path d="M19.8016 16.2537C19.7782 22.0835 17.2912 28.1021 12.1531 30.8399C8.54004 32.7754 0 34.2623 0 27.9604C0 27.9604 0 4.52331 0 4.49971C0 1.00655 2.9327 -0.149967 5.86541 0.0152497C10.2293 0.251274 14.4055 2.30468 16.9393 6.08107C18.5582 8.48851 19.4498 11.3916 19.7313 14.3183C19.7547 14.9791 19.8016 15.6164 19.8016 16.2537Z" fill="url(#paint0_linear_222_866)"/>
<path d="M27.8985 14.1994C27.4058 9.38454 24.473 5.34853 20.4142 2.91748C17.7161 1.28892 14.3376 0.887686 12.578 4.14481C12.578 4.16841 0.729866 26.0714 0.729866 26.0714C-0.302447 27.9832 -0.0678291 29.5646 0.870637 30.8627C2.27834 32.7981 5.07027 33.6714 7.34604 33.9074C9.45757 34.1434 11.5926 33.9074 13.6338 33.4354C19.8042 32.0192 25.2707 27.7944 27.1242 21.6577C27.8516 19.2503 28.1565 16.7249 27.8985 14.1994Z" fill="url(#paint1_linear_222_866)"/>
<path d="M12.1531 30.8621C17.2912 28.1006 19.7781 22.082 19.8016 16.2758C19.8016 15.6386 19.7781 15.0013 19.7078 14.364C19.4496 11.4373 18.5347 8.53423 16.9158 6.12678C16.0243 4.78145 14.9215 3.67214 13.6781 2.75165C13.2792 3.10568 12.9039 3.57773 12.5989 4.16779C12.5989 4.19139 0.750739 26.0944 0.750739 26.0944C-0.0234953 27.5106 -0.0704229 28.7614 0.328425 29.8472C0.328425 29.8708 0.351888 29.8944 0.351888 29.918C0.37535 29.9652 0.398809 30.036 0.42227 30.0832C0.445732 30.1305 0.445735 30.154 0.469196 30.2012C0.469196 30.2248 0.492659 30.2484 0.492659 30.2484C2.34613 33.836 9.05616 32.5143 12.1531 30.8621Z" fill="#E23B7B"/>
<defs>
<linearGradient id="paint0_linear_222_866" x1="9.85068" y1="9.62665" x2="9.85068" y2="19.8195" gradientUnits="userSpaceOnUse">
<stop stop-color="#7047EB"/>
<stop offset="1" stop-color="#A244FF"/>
</linearGradient>
<linearGradient id="paint1_linear_222_866" x1="23.6465" y1="5.2288" x2="9.56013" y2="32.3584" gradientUnits="userSpaceOnUse">
<stop stop-color="#FF9B53"/>
<stop offset="1" stop-color="#FF698F"/>
</linearGradient>
</defs>
</svg>
