<svg width="99" height="10" viewBox="0 0 99 10" fill="none" xmlns="http://www.w3.org/2000/svg">
<path d="M85.3769 0.134021C85.3769 0.216495 85.2837 0.360825 85.1698 0.463918C84.6313 0.948454 85.1491 1.83505 85.8947 1.71134C86.34 1.63918 86.516 1.41237 86.516 0.907217C86.516 0.628866 86.4643 0.494845 86.3089 0.412371C86.195 0.350515 86.1018 0.237113 86.1018 0.154639C86.1018 0.0515464 85.9879 0 85.7394 0C85.5012 0 85.3769 0.0515464 85.3769 0.134021ZM78.5527 0.443299C78.2938 0.56701 78.1281 0.804124 77.6621 1.70103C77.5068 1.97938 77.2375 2.49485 77.0408 2.83505C76.8544 3.17526 76.5748 3.68041 76.4298 3.96907C76.2848 4.24742 75.9949 4.78351 75.7878 5.15464C75.5807 5.52577 75.2286 6.17526 75.0008 6.59794C74.3069 7.89691 74.4416 7.84536 71.9355 7.81443L69.792 7.78351L69.7609 7.49485C69.7402 7.3299 69.792 7.12371 69.8644 7.03093C69.9369 6.92783 70.0923 6.69072 70.2062 6.49485C70.3097 6.29897 70.5065 5.94845 70.6411 5.72165C70.7654 5.49485 70.9207 5.2165 70.9828 5.10309C71.0346 4.98969 71.2417 4.61856 71.4385 4.27835C72.4533 2.54639 72.4533 2.43299 71.4696 2.49485C70.9414 2.52577 70.7757 2.58763 70.5272 2.81443C70.289 3.04124 70.1544 3.08247 69.9266 3.04124C69.4917 2.93814 68.0937 3.19588 67.5138 3.48454C66.8303 3.81443 66.1261 4.57732 65.7223 5.38144C65.4012 6.05155 65.0802 7 65.0802 7.31959C65.0802 7.41237 64.9974 7.56701 64.8938 7.65979C64.7281 7.81443 64.3968 7.83505 62.4706 7.83505C60.3478 7.83505 60.2235 7.82474 59.9646 7.61856C59.5297 7.27835 59.5608 7.2268 61.0623 5.15464C61.549 4.47423 61.6733 4.05155 61.4972 3.62887C61.2383 3 61.0002 2.89691 59.9336 2.8866C58.8566 2.8866 58.5563 2.73196 58.5563 2.18557C58.5563 1.60825 57.9557 1.12371 57.2411 1.14433C56.5991 1.15464 56.1538 1.37113 55.7914 1.84536C55.5118 2.19588 55.4496 2.38144 55.4496 2.78351C55.4496 3.08247 55.5118 3.31959 55.5946 3.39175C55.8017 3.56701 55.8846 3.96907 55.7603 4.26804C55.636 4.59794 54.3209 5.97938 53.6996 6.43299C52.9954 6.94845 52.0427 7.40206 51.1832 7.62887C50.1787 7.89691 47.683 7.92784 47.4345 7.6701C47.1031 7.35052 47.331 6.90722 47.828 6.90722C48.0248 6.90722 48.4286 6.83505 48.729 6.74227C50.6861 6.16495 52.0323 4.80412 52.0323 3.39175C52.0323 2.90722 51.9909 2.78351 51.7527 2.5567C50.8208 1.70103 48.729 2.15464 47.3724 3.50515C46.6579 4.2165 46.2126 5.1134 45.9744 6.31959C45.8087 7.13402 45.7569 7.25773 45.4152 7.52577L45.0424 7.83505H43.313C41.2834 7.83505 41.3455 7.87629 41.4387 6.71134C41.5319 5.64948 41.2834 4.89691 40.6206 4.2165L40.1236 3.70103V2.79381C40.1236 2.03093 40.0925 1.83505 39.9061 1.60825C39.4919 1.08247 39.2019 1.25773 37.8971 2.82474C37.2033 3.65979 35.1529 6.07217 34.3556 6.98969C33.6203 7.83505 33.5893 7.84536 31.3525 7.81443C28.8879 7.7732 28.9707 7.94845 30.2962 5.62887C30.4619 5.34021 30.6483 5.03093 30.7001 4.94845C30.7519 4.86598 30.9176 4.5567 31.0729 4.27835C31.456 3.53608 31.5699 3.34021 31.7253 3.16495C31.7978 3.07217 31.8392 2.89691 31.8185 2.76289C31.7874 2.5567 31.7253 2.52577 31.2282 2.49485C30.7415 2.46392 30.6069 2.50515 30.2134 2.78351C29.9027 3.01031 29.706 3.08247 29.5506 3.04124C29.4264 3 28.95 3.03093 28.484 3.09278C27.0032 3.31959 25.978 4.07217 25.3256 5.40206C25.0253 6.03093 24.6939 7.04124 24.6939 7.34021C24.6939 7.42268 24.6111 7.56701 24.5075 7.65979C24.2279 7.90722 20.3343 7.91753 20.1375 7.68041C20.0236 7.54639 20.0857 7.35052 20.5207 6.46392C22.7782 1.93814 22.8299 1.81443 22.8299 1.31959C22.8299 0.670103 22.6539 0.57732 21.4941 0.639175C20.8624 0.670103 20.5207 0.731959 20.3136 0.876289C20.0236 1.06186 20.0132 1.06186 19.6094 0.824742C19.2262 0.618557 19.0813 0.597938 18.1389 0.639175C17.3312 0.670103 17.0102 0.721649 16.7927 0.865979C16.5027 1.06186 16.4924 1.06186 16.0575 0.845361C15.6122 0.618557 15.5293 0.618557 10.0306 0.618557C6.96536 0.618557 4.34543 0.649485 4.23152 0.680412C3.95192 0.752577 3.00957 2.02062 3.09242 2.2165C3.13384 2.35052 3.88979 2.37113 8.30122 2.39175C13.1994 2.42268 13.4582 2.43299 13.4893 2.60825C13.5204 2.76289 12.5159 5 12.1535 5.56701C12.1017 5.64949 12.0292 5.79381 11.9981 5.87629C11.9567 5.95876 11.5839 6.72165 11.1697 7.57732C10.7451 8.42268 10.4034 9.2268 10.4034 9.35052C10.4034 9.57732 10.4448 9.58763 11.2629 9.58763C11.7703 9.57732 12.1742 9.52577 12.2777 9.45361C12.3606 9.38144 12.899 8.40206 13.4479 7.26804C15.9228 2.23711 15.84 2.37113 16.4199 2.37113C17.0619 2.37113 17.0205 2.51546 15.7054 5.17526C13.3133 10 13.4168 9.58763 14.6388 9.58763C15.3844 9.58763 15.4568 9.56701 15.695 9.29897C15.8296 9.14433 16.0989 8.72165 16.2749 8.35052C16.451 7.97938 17.093 6.68041 17.6936 5.45361C18.2942 4.23711 18.7913 3.18557 18.7913 3.13402C18.8017 2.98969 19.133 2.61856 19.3816 2.48454C19.6922 2.3299 19.9822 2.34021 20.1375 2.52577C20.2514 2.65979 20.1686 2.8866 19.6819 3.89691C19.3505 4.5567 19.0398 5.17526 18.9881 5.25773C18.9363 5.34021 18.8638 5.48454 18.8327 5.56701C18.7913 5.64949 18.5117 6.24742 18.201 6.8866C17.8904 7.52577 17.6108 8.2268 17.5797 8.45361C17.5279 8.82474 17.559 8.89691 17.9007 9.2268L18.2839 9.58763H21.5355C24.2072 9.58763 24.8285 9.5567 25.0667 9.43299C25.4499 9.23711 25.7398 9.23711 26.2162 9.43299C26.62 9.60825 27.552 9.63918 27.6452 9.49485C27.6763 9.43299 27.9145 9.36083 28.163 9.31959C28.5047 9.26804 28.6911 9.29897 28.8879 9.42268C29.095 9.5567 29.4678 9.58763 31.1868 9.58763C34.4384 9.57732 34.3556 9.61856 36.6545 6.75258C37.1101 6.19588 37.5554 5.65979 37.6382 5.56701C37.7314 5.47423 37.9593 5.18557 38.156 4.91753C38.4356 4.51546 38.5599 4.43299 38.7774 4.45361C39.0155 4.48454 39.0362 4.52577 39.0155 4.89691C39.0052 5.12371 38.9223 5.53608 38.8395 5.82474C38.7566 6.10309 38.6013 6.62887 38.5081 6.98969C38.301 7.73196 38.1767 7.83505 37.4519 7.83505C36.8927 7.83505 36.7995 7.91753 36.3645 8.79382C36.1678 9.16495 36.1678 9.19588 36.3438 9.38144C36.5302 9.58763 36.7063 9.58763 43.6548 9.58763C50.8622 9.58763 51.1832 9.57732 52.1877 9.20619C53.9067 8.56701 55.8949 6.92784 57.4172 4.91753C57.9039 4.26804 58.1006 4.12371 58.4734 4.12371C59.1776 4.12371 59.3847 4.79381 58.898 5.45361C58.7323 5.65979 58.5666 5.89691 58.5045 6C58.4527 6.09278 58.111 6.59794 57.7486 7.12371C56.9719 8.27835 56.8994 8.48454 57.179 8.94845C57.5207 9.54639 57.7589 9.58763 61.6733 9.58763C64.5625 9.58763 65.2148 9.5567 65.453 9.43299C65.8362 9.23711 66.1261 9.23711 66.6025 9.43299C67.0063 9.60825 67.9383 9.63918 68.0315 9.49485C68.0626 9.43299 68.3008 9.36083 68.5493 9.31959C68.891 9.26804 69.0774 9.29897 69.2742 9.42268C69.4917 9.56701 69.8852 9.58763 71.9045 9.58763C73.375 9.58763 74.3069 9.54639 74.3484 9.48454C74.4312 9.35052 74.9904 9.35052 75.0732 9.48454C75.1147 9.54639 76.3159 9.58763 78.3352 9.58763C80.3545 9.58763 81.5558 9.54639 81.5972 9.48454C81.68 9.35052 82.3428 9.35052 82.4256 9.48454C82.467 9.54639 84.6624 9.58763 88.6803 9.58763C94.7901 9.58763 94.8833 9.58763 95.1525 9.37113C95.2975 9.25773 95.546 8.95876 95.691 8.70103C95.836 8.45361 96.0224 8.24742 96.1052 8.24742C96.188 8.24742 96.2502 8.15464 96.2502 8.04124C96.2502 7.83505 96.1777 7.83505 90.1094 7.83505H83.9686L83.689 7.54639C83.5337 7.39175 83.4094 7.20619 83.4094 7.14433C83.4094 7.04124 83.7822 6.30928 84.4864 5.05155C84.6935 4.68041 84.9834 4.14433 85.1284 3.86598C85.2734 3.57732 85.4805 3.20619 85.584 3.04124C85.9776 2.40206 85.8429 2.26804 84.8281 2.26804C83.9893 2.27835 83.8547 2.39175 83.2541 3.5567C83.0987 3.83505 82.757 4.48454 82.4774 5C82.1875 5.50516 81.8354 6.15464 81.6904 6.4433C81.214 7.36083 81.1519 7.4433 80.862 7.63918C80.5927 7.81443 80.3442 7.83505 78.7287 7.83505C76.9994 7.83505 76.8855 7.82474 76.7508 7.61856C76.6162 7.43299 76.6266 7.36083 76.8337 6.97938C76.9683 6.74227 77.2065 6.28866 77.3722 5.97938C78.0556 4.68041 78.5837 3.75258 78.7287 3.57732C78.8116 3.48454 79.0187 3.40206 79.1844 3.40206C79.7332 3.40206 80.3235 2.92784 80.2717 2.52577C80.2613 2.37113 80.1578 2.30928 79.9196 2.28866C79.5468 2.24742 79.4847 2.07217 79.7125 1.68041C80.2717 0.71134 80.3442 0.505155 80.1992 0.412371C79.9714 0.268041 78.8426 0.28866 78.5527 0.443299ZM50.5204 3.39175C50.769 3.6701 50.6654 3.92784 50.1476 4.34021C49.9095 4.53608 49.547 4.83505 49.3399 5.01031C48.7497 5.53608 48.5426 5.60825 48.2422 5.41237C48.1076 5.3299 47.9937 5.16495 47.9937 5.05155C47.9937 4.83505 49.9095 3.20619 50.1787 3.19588C50.2719 3.19588 50.4272 3.28866 50.5204 3.39175ZM29.0225 4.56701C29.0536 4.74227 28.8361 5.25773 28.4012 5.97938C28.2873 6.17526 28.0698 6.54639 27.9352 6.80412C27.6142 7.40206 27.3967 7.62887 27.1585 7.62887C26.7547 7.62887 26.8168 7.36083 27.5106 6.18557C27.6245 5.98969 27.8316 5.61856 27.9766 5.36083C28.4944 4.41237 28.5772 4.30928 28.8361 4.36083C28.9189 4.37113 29.0018 4.46392 29.0225 4.56701ZM69.4088 4.59794C69.4399 4.78351 69.181 5.31959 68.7046 6.08247C68.6529 6.16495 68.4872 6.46392 68.3318 6.75258C67.9798 7.41237 67.783 7.62887 67.5448 7.62887C67.2134 7.62887 67.2238 7.36083 67.5759 6.73196C68.2594 5.53608 68.3836 5.29897 68.6011 4.89691C68.7253 4.6701 68.8807 4.45361 68.9532 4.41237C69.1499 4.27835 69.3777 4.37113 69.4088 4.59794Z" fill="#86898F"/>
</svg>
