<svg width="82" height="24" viewBox="0 0 82 24" fill="none" xmlns="http://www.w3.org/2000/svg">
<path d="M2.06173 19V4.45455H4.69668V16.7912H11.1029V19H2.06173Z" fill="#86898F"/>
<path d="M30.9666 8.45312C30.9003 7.83286 30.6209 7.34991 30.1285 7.00426C29.6408 6.65862 29.0063 6.4858 28.2251 6.4858C27.6758 6.4858 27.2047 6.56866 26.8117 6.73438C26.4187 6.90009 26.1181 7.125 25.9097 7.40909C25.7014 7.69318 25.5949 8.01752 25.5901 8.3821C25.5901 8.68513 25.6588 8.94792 25.7961 9.17045C25.9382 9.39299 26.1299 9.58239 26.3714 9.73864C26.6129 9.89015 26.8804 10.018 27.174 10.1222C27.4675 10.2263 27.7634 10.3139 28.0617 10.3849L29.4254 10.7259C29.9746 10.8537 30.5025 11.0265 31.0092 11.2443C31.5205 11.4621 31.9775 11.7367 32.3799 12.0682C32.7871 12.3996 33.1091 12.7997 33.3458 13.2685C33.5826 13.7372 33.7009 14.2865 33.7009 14.9162C33.7009 15.7685 33.4831 16.5189 33.0475 17.1676C32.6119 17.8116 31.9822 18.3158 31.1583 18.6804C30.3392 19.0402 29.3472 19.2202 28.1825 19.2202C27.0508 19.2202 26.0684 19.045 25.235 18.6946C24.4064 18.3442 23.7578 17.8329 23.289 17.1605C22.825 16.4882 22.574 15.669 22.5362 14.7031H25.1285C25.1664 15.2098 25.3226 15.6312 25.5972 15.9673C25.8719 16.3035 26.2293 16.5545 26.6697 16.7202C27.1148 16.8859 27.6119 16.9688 28.1612 16.9688C28.7341 16.9688 29.236 16.8835 29.6668 16.7131C30.1025 16.5379 30.4434 16.2964 30.6896 15.9886C30.9358 15.6761 31.0613 15.3116 31.066 14.8949C31.0613 14.5161 30.95 14.2036 30.7322 13.9574C30.5144 13.7064 30.209 13.4981 29.816 13.3324C29.4277 13.1619 28.9732 13.0104 28.4524 12.8778L26.7975 12.4517C25.5996 12.1439 24.6526 11.6776 23.9566 11.0526C23.2653 10.4228 22.9197 9.58712 22.9197 8.54545C22.9197 7.68845 23.1517 6.93797 23.6157 6.29403C24.0845 5.65009 24.7213 5.15057 25.5262 4.79545C26.3311 4.43561 27.2426 4.25568 28.2606 4.25568C29.2928 4.25568 30.1972 4.43561 30.9737 4.79545C31.7549 5.15057 32.3681 5.64536 32.8132 6.27983C33.2582 6.90956 33.4879 7.634 33.5021 8.45312H30.9666Z" fill="#86898F"/>
<path d="M56.1924 19V4.45455H53.5575V11.1378H53.3799L47.7052 4.45455H44.4879L50.1129 10.9815L44.4382 19H47.6058L51.9453 12.7642L53.5575 14.6676V19H56.1924Z" fill="#86898F"/>
<path d="M72.9907 19H68.0617V4.45455H73.0901C74.5343 4.45455 75.7748 4.74574 76.8117 5.32812C77.8534 5.90578 78.6536 6.73674 79.2123 7.82102C79.771 8.9053 80.0504 10.2027 80.0504 11.7131C80.0504 13.2282 79.7686 14.5303 79.2052 15.6193C78.6465 16.7083 77.8392 17.544 76.7833 18.1264C75.7322 18.7088 74.468 19 72.9907 19ZM70.6967 16.7202H72.8629C73.8761 16.7202 74.7213 16.5355 75.3984 16.1662C76.0755 15.7921 76.5845 15.2358 76.9254 14.4972C77.2663 13.7538 77.4367 12.8258 77.4367 11.7131C77.4367 10.6004 77.2663 9.67708 76.9254 8.94318C76.5845 8.20455 76.0802 7.65294 75.4126 7.28835C74.7497 6.91903 73.9258 6.73438 72.941 6.73438H70.6967V16.7202Z" fill="#86898F"/>
</svg>
