<svg width="70" height="53" viewBox="0 0 70 53" fill="none" xmlns="http://www.w3.org/2000/svg">
<g clip-path="url(#clip0_69_955)">
<path d="M69.2123 50.6364C69.2123 51.3842 68.6632 51.8862 68.0131 51.8862V51.8816C67.3446 51.8862 66.8056 51.3842 66.8056 50.6366C66.8056 49.8892 67.3446 49.3886 68.0131 49.3886C68.6634 49.3884 69.2123 49.889 69.2123 50.6364ZM69.6988 50.6364C69.6988 49.6101 68.9015 49.0144 68.0131 49.0144C67.1185 49.0144 66.3213 49.6101 66.3213 50.6364C66.3213 51.6621 67.1187 52.2602 68.0131 52.2602C68.9017 52.2602 69.6988 51.6621 69.6988 50.6364ZM67.7335 50.7736H67.9139L68.3322 51.508H68.7915L68.3282 50.7427C68.5676 50.7256 68.7645 50.6116 68.7645 50.2894C68.7645 49.889 68.4885 49.7603 68.0208 49.7603H67.3444V51.508H67.7333V50.7736M67.7335 50.4778V50.0569H68.004C68.1511 50.0569 68.3516 50.0688 68.3516 50.2483C68.3516 50.4436 68.2479 50.4778 68.0744 50.4778H67.7335Z" fill="#86898F"/>
<path d="M58.3464 41.696L60.4482 47.4457H56.1797L58.3464 41.696ZM56.0956 39.4572L51.2522 51.7288H54.6723L55.4384 49.5605H61.1702L61.8952 51.7288H65.6081L60.7286 39.4556L56.0956 39.4572ZM46.3717 51.7334H49.8416V39.4535L46.3711 39.4527L46.3717 51.7334ZM22.2833 39.4527L19.3883 49.1855L16.6151 39.4535L12.8711 39.4527L16.8319 51.7334H21.8307L25.8233 39.4527H22.2833ZM36.3089 42.1267H37.8002C39.9638 42.1267 41.3631 43.098 41.3631 45.6188C41.3631 48.1402 39.9638 49.1117 37.8002 49.1117H36.3089V42.1267ZM32.8682 39.4527V51.7334H38.4935C41.4906 51.7334 42.4693 51.2352 43.5275 50.1175C44.275 49.3328 44.7584 47.6107 44.7584 45.7281C44.7584 44.0014 44.3493 42.4623 43.636 41.5032C42.3507 39.788 40.4993 39.4527 37.7362 39.4527H32.8682ZM-0.000732422 39.4356V51.7334H3.4985V42.3956L6.20983 42.3964C7.10759 42.3964 7.74754 42.6201 8.17987 43.082C8.7282 43.666 8.95209 44.6088 8.95209 46.3333V51.7334H12.3428V44.9388C12.3428 40.0894 9.25194 39.4356 6.22767 39.4356H-0.000732422ZM27.2837 39.4527L27.2851 51.7334H30.7534V39.4527H27.2837Z" fill="#86898F"/>
<path d="M9.3263 15.0006C9.3263 15.0006 13.7891 8.41601 22.6999 7.73481V5.34593C12.8301 6.13859 4.2832 14.4979 4.2832 14.4979C4.2832 14.4979 9.12402 28.4918 22.6999 29.7731V27.2339C12.7373 25.9806 9.3263 15.0006 9.3263 15.0006ZM22.6999 22.1841V24.5095C15.1704 23.1671 13.0804 15.3401 13.0804 15.3401C13.0804 15.3401 16.6956 11.3352 22.6999 10.6857V13.2374C22.6953 13.2374 22.6922 13.236 22.6884 13.236C19.537 12.8578 17.0752 15.8018 17.0752 15.8018C17.0752 15.8018 18.455 20.7578 22.6999 22.1841ZM22.6999 0.939819V5.34593C22.9896 5.32372 23.2794 5.30488 23.5707 5.29496C34.7916 4.91678 42.1028 14.4979 42.1028 14.4979C42.1028 14.4979 33.7057 24.7086 24.9573 24.7086C24.1555 24.7086 23.4049 24.6342 22.6999 24.5093V27.2339C23.3028 27.3105 23.9279 27.3555 24.5801 27.3555C32.721 27.3555 38.6084 23.1978 44.3091 18.2771C45.2542 19.0341 49.1237 20.8756 49.9191 21.6817C44.4988 26.2197 31.8665 29.8778 24.7048 29.8778C24.0145 29.8778 23.3516 29.836 22.6999 29.7731V33.6017H53.643V0.939819H22.6999ZM22.6999 10.6857V7.73481C22.9867 7.71478 23.2756 7.69951 23.5707 7.69019C31.6396 7.43674 36.9334 14.6242 36.9334 14.6242C36.9334 14.6242 31.2157 22.5652 25.085 22.5652C24.2027 22.5652 23.4118 22.4234 22.6999 22.1841V13.2374C25.8412 13.617 26.4732 15.0046 28.3617 18.1528L32.562 14.6111C32.562 14.6111 29.4959 10.5899 24.3273 10.5899C23.7654 10.5897 23.2278 10.6292 22.6999 10.6857Z" fill="#86898F"/>
</g>
<defs>
<clipPath id="clip0_69_955">
<rect width="69.699" height="51.3204" fill="white" transform="translate(-0.000976562 0.939819)"/>
</clipPath>
</defs>
</svg>
