<svg width="55" height="65" viewBox="0 0 55 65" fill="none" xmlns="http://www.w3.org/2000/svg">
<path fill-rule="evenodd" clip-rule="evenodd" d="M46.7314 4.29581V5.26239L27.9787 1.9759L9.22754 5.26239V4.29581L27.9787 0.987671L46.7314 4.29581Z" fill="#86898F"/>
<path fill-rule="evenodd" clip-rule="evenodd" d="M46.7314 3.30727V4.29579L27.9787 0.98765L9.22754 4.29579V3.30727L27.9787 0L46.7314 3.30727Z" fill="#86898F"/>
<path fill-rule="evenodd" clip-rule="evenodd" d="M46.7314 5.26238L27.9787 1.97589L9.22754 5.26238L9.22783 8.59707L9.39032 8.505C9.45641 8.46806 16.1102 4.77895 28.0148 4.77895C39.9203 4.77895 46.4964 8.46892 46.5631 8.50558L46.7239 8.59794L46.7314 5.26238Z" fill="#86898F"/>
<path fill-rule="evenodd" clip-rule="evenodd" d="M9.39174 8.50474L9.22925 8.59681V18.5792C9.22925 23.9112 10.4827 29.2197 12.955 34.3568C18.7588 46.4066 27.7568 50.6219 27.8468 50.6631L27.9802 50.724L28.1132 50.6631C28.2041 50.6219 37.1946 46.4054 42.9981 34.3568C45.4715 29.2197 46.7253 23.9112 46.7253 18.5792V8.59768L46.5645 8.50532C46.4982 8.46866 39.9217 4.77869 28.0162 4.77869C16.1116 4.77869 9.45783 8.4678 9.39174 8.50474ZM28.0162 5.42346C38.7667 5.42346 45.0617 8.44875 46.082 8.97923V18.5792C46.082 23.813 44.8493 29.0269 42.4197 34.0789C37.1016 45.1133 29.0994 49.446 27.9802 50.0114C26.86 49.446 18.8518 45.1133 13.5351 34.0789C11.1056 29.0269 9.87315 23.813 9.87315 18.5792V8.98038C10.9027 8.45048 17.2638 5.42346 28.0162 5.42346Z" fill="#86898F"/>
<path fill-rule="evenodd" clip-rule="evenodd" d="M30.8316 40.7087C31.1439 40.9246 30.9173 41.2995 30.6862 41.3581C30.4455 41.4236 30.2397 41.1564 30.1231 41.4493C30.0576 41.6066 30.2353 42.7983 31.4545 42.7983C32.5925 42.7983 33.1354 41.3373 33.2425 41.1174C33.3501 40.898 33.4194 40.6181 33.3117 40.6181C32.8124 40.6181 32.6669 40.9145 32.6669 40.9145C32.6669 40.9145 32.6291 40.6293 32.8774 40.414C33.082 40.2383 33.3504 40.281 33.4474 40.281C33.6508 40.281 33.6188 40.1295 33.7418 39.8296C34.022 39.1239 34.2148 39.0922 34.3969 38.7704C34.5479 38.5083 34.2627 38.4055 33.7002 38.3527C33.136 38.299 32.8338 38.3218 32.5818 38.3585C32.3293 38.3946 32.0779 38.497 31.9212 38.8832C31.8372 39.0924 31.991 39.2985 32.2866 39.2451C32.5818 39.19 32.8661 38.9666 32.8661 38.9666C32.8661 38.9666 32.733 39.4954 32.2923 39.6047C31.8836 39.7052 31.4011 39.4587 31.466 39.0451C31.5506 38.5086 31.9214 38.1155 32.598 37.983C33.2756 37.8465 33.951 37.951 34.5534 38.099C35.1537 38.2506 35.5956 38.1588 36.1537 38.1262C37.3573 38.0618 38.1031 37.7778 38.1031 37.7778C38.1031 37.7778 37.5608 38.2179 36.8089 38.4214C36.0571 38.6266 35.3866 38.5415 35.1696 38.6266C34.9944 38.7017 34.7467 39.0494 34.5427 39.4469C34.3551 39.8123 34.1553 40.2334 34.2416 40.2334C34.9407 40.2599 35.1967 40.1069 35.1967 40.1069C35.1967 40.1069 35.0584 40.4085 34.7254 40.5511C34.4942 40.6446 34.102 40.6446 34.102 40.6446C34.102 40.6446 33.9256 41.0911 33.727 41.494C33.527 41.8967 33.1994 42.5256 32.6098 42.8367C32.0178 43.1472 30.8859 43.5346 30.173 42.5091C29.4188 41.4334 30.1072 40.2097 30.8316 40.7087ZM22.0793 40.849C22.2184 41.2051 21.9229 41.3907 21.7511 41.3907C21.5788 41.3907 21.3644 41.2629 21.3197 41.4782C21.2787 41.6917 21.7771 42.7934 22.9368 42.7934C24.097 42.7934 24.6347 42.1221 24.553 41.5206C24.4621 40.8493 23.3957 40.5826 22.5457 40.1355C22.1298 39.9173 21.1898 39.7713 21.1898 38.8913C21.1898 37.0124 24.0491 38.2125 24.0491 38.2125C24.0491 38.2125 24.0552 37.9775 24.1882 37.9666C24.2526 37.9605 24.3819 37.9351 24.4249 38.1475C24.4673 38.3617 24.6564 39.4902 24.6564 39.4902C24.6564 39.4902 24.2361 38.6309 23.0828 38.2557C22.8788 38.1842 21.9866 38.0145 21.9918 38.7207C22.0025 39.1401 22.5137 39.3282 23.3997 39.6723C24.5643 40.1289 25.1609 40.554 24.8858 41.7783C24.624 42.9539 23.4748 43.1472 22.916 43.1472C22.3584 43.1472 21.0752 42.7562 21.0752 41.4663C21.0752 40.5543 21.9699 40.5757 22.0793 40.849ZM28.189 33.7842L28.6586 34.0067C28.9293 34.1115 29.1022 34.0653 29.1643 34.0393C29.2298 34.011 29.4777 33.7449 29.5317 33.5184C29.5571 33.426 29.5435 33.3458 29.4945 33.2866C29.3118 33.0702 28.9882 32.0759 28.8682 31.5385C28.8237 31.339 28.8777 30.7886 28.9195 30.3456C28.9562 29.9652 28.9787 29.7288 28.9597 29.6679C28.9276 29.5738 28.7871 29.4829 28.6254 29.3805L28.3694 29.2061C28.2329 29.0944 28.2269 28.9423 28.2193 28.779L28.1922 28.5253C28.1328 28.2892 26.9312 27.062 26.7451 27.0507C26.4752 27.0331 26.4051 27.3293 26.3878 27.5073C26.3771 27.6115 26.4975 28.0768 26.606 28.4892L26.7258 28.9865C26.8487 29.7684 27.6799 31.1454 28.0343 31.733L28.2026 32.0187C28.2753 32.1844 28.2471 32.3151 28.1178 32.3884C27.9922 32.4606 26.9119 32.3477 26.3959 32.2288C26.1742 32.178 25.9006 32.0675 25.6336 31.9593C25.328 31.8375 25.0382 31.7191 24.8708 31.7108C24.6754 31.7007 24.5828 31.7402 24.5109 31.7734L24.3937 31.806L24.2771 31.7688C24.134 31.7056 23.8664 31.5901 23.1359 31.524C22.0712 31.4242 21.9913 31.6383 21.948 31.7541C21.8952 31.9012 22.546 32.5934 22.6623 32.686C22.8104 32.8055 23.2892 32.9876 23.5816 32.9391C23.9158 32.8854 24.4607 32.8179 24.5282 32.8315L24.6379 32.8984L24.7398 32.9706C24.8321 33.0084 25.4273 33.041 25.6071 33.0505C25.8146 33.0618 26.3595 33.1746 26.7578 33.258L27.2028 33.3478C27.3772 33.3798 27.8263 33.6015 28.189 33.7842Z" fill="#86898F"/>
<path fill-rule="evenodd" clip-rule="evenodd" d="M39.2015 19.9758C39.1779 19.9467 39.1582 19.945 39.1458 19.9481C39.1346 19.9519 39.1193 19.9626 39.1149 19.9972C39.0953 20.1455 38.9092 20.5268 38.7614 20.5831C38.4621 20.6988 38.3071 21.0498 38.1948 21.3055C38.1374 21.4374 38.0814 21.5632 38.037 21.565C38.0179 21.5664 37.9968 21.5459 37.9737 21.5032C37.7893 21.1851 37.8926 20.6988 37.9755 20.3069L37.9945 20.2108C38.0621 19.8803 38.4488 19.4174 38.68 19.1397L38.7822 19.0168C38.9395 18.8205 38.979 18.1555 38.9496 18.1056C38.94 18.1027 38.9337 18.1082 38.9299 18.114C38.9263 18.1168 38.9233 18.1204 38.921 18.1244L38.9175 18.1238V18.1272C38.908 18.1376 38.8999 18.1388 38.8921 18.1723C38.8509 18.3801 38.471 18.8023 37.8222 19.3634C37.6892 19.4785 37.5376 19.6866 37.4135 19.8537C37.3336 19.9634 37.2398 20.0898 37.215 20.0959C37.0542 19.2381 37.3451 18.7478 37.4834 18.5108L37.5477 18.3905C37.8222 17.6435 38.529 17.0778 38.5365 17.0726C38.5461 17.051 38.5461 17.0279 38.5288 17.0132C38.5016 16.9924 38.452 17.0013 38.3738 17.0406L38.3311 17.0619C38.0846 17.1817 37.3411 17.5439 36.8851 18.4161C36.5575 19.0442 36.4308 19.7461 36.4308 20.2754C36.4308 20.5456 36.4634 20.7695 36.5188 20.9179C36.679 21.345 36.9595 22.4066 37.0458 22.8233C37.0995 23.0816 37.1079 23.9686 37.1079 24.5244C37.1079 24.796 37.1067 24.9862 37.1067 24.9935C37.105 24.9935 36.9653 25.4443 36.9653 25.4443C36.9647 25.4489 36.8972 25.801 36.3217 26.3895C35.7422 26.9815 35.0968 27.1696 35.091 27.1719C34.8319 27.1921 34.5955 27.1815 34.5871 27.1477C34.5871 26.4712 33.4286 24.8973 32.8358 24.3781C32.2308 23.8479 31.7474 23.4681 30.926 22.9682C30.0896 22.4591 29.1594 20.3248 29.1487 20.304L29.0682 20.0157C29.0682 20.0157 29.0231 19.4399 29.0107 19.2901C29.041 19.3074 29.0806 19.3319 29.0806 19.3319L29.3657 19.4979L29.6933 19.6237C29.6962 19.6246 30.1222 19.708 30.1222 19.708C30.1222 19.7089 30.3606 19.8309 30.3606 19.8309L30.5817 19.9747L30.9254 20.2229L31.2784 20.4085C31.2856 20.4105 31.7024 20.4318 31.7024 20.4318L31.7119 20.3975C31.7119 20.3975 31.2293 20.1709 31.2282 20.1709C31.2282 20.164 31.0544 19.8667 31.0544 19.8667C30.9869 19.7697 30.9194 19.6727 30.8521 19.5755C30.8455 19.5709 30.6013 19.4251 30.6013 19.4251C30.4979 19.4094 30.3944 19.3948 30.2907 19.3813C30.2907 19.3787 30.2298 19.3264 30.1984 19.2982C30.2255 19.2823 30.2766 19.2505 30.2766 19.2505C30.2766 19.2543 30.6091 19.2927 30.6102 19.2927C30.6102 19.2961 30.9061 19.4973 30.9061 19.4973L31.229 19.7461C31.2342 19.7487 31.5347 19.8653 31.5347 19.8653L31.5742 19.8809L31.4423 19.5377C31.3599 19.4587 31.2768 19.3803 31.1932 19.3025L30.8273 18.9914C30.8244 18.9888 30.5398 18.8421 30.5398 18.8421C30.5369 18.8416 30.2333 18.7391 30.2333 18.7391C30.2333 18.7385 29.9121 18.5336 29.9121 18.5336C29.9121 18.5336 29.9155 18.5117 29.9178 18.4929C29.9585 18.5085 30.3626 18.6707 30.3626 18.6707C30.3649 18.671 30.7499 18.7758 30.7499 18.7758C30.7494 18.7743 31.0729 18.8993 31.0729 18.8993C31.0717 18.8981 31.5373 19.1253 31.5373 19.1253C31.5413 19.1273 31.9269 19.211 31.9269 19.211C31.9335 19.2113 32.4026 19.1273 32.4026 19.1273C32.4086 19.1244 32.8557 18.8133 32.8557 18.8133C32.8609 18.8049 32.9431 18.6199 32.9431 18.6199L32.9607 18.5772L32.817 18.6366C32.8159 18.6366 32.4112 18.8421 32.4106 18.8421L32.1304 18.9048C32.1304 18.9033 31.8141 18.8413 31.8135 18.8413H31.8141C31.8141 18.8375 31.5575 18.5988 31.5575 18.5988L31.1932 18.2461L30.8639 18.0776C30.8593 18.0756 30.4743 18.0132 30.4743 18.0132C30.4743 18.0124 30.2399 17.8932 30.2359 17.8911C30.2371 17.8911 30.2376 17.8868 30.2376 17.8808C30.2376 17.8525 30.2304 17.7907 30.2275 17.7618L30.7118 17.8025L31.2423 17.7598C31.2423 17.7613 31.541 17.8222 31.541 17.8222L31.8432 17.9468L32.1526 17.9887L32.2083 17.9962L31.8634 17.6663C31.86 17.6646 31.5156 17.4158 31.5156 17.4158C31.5116 17.4138 31.227 17.3096 31.227 17.3096C31.2218 17.3084 30.7473 17.2683 30.7378 17.2674C30.7418 17.2672 30.7424 17.2591 30.7424 17.2472C30.7424 17.2184 30.7378 17.1774 30.7352 17.1563L30.9595 17.1182C30.9595 17.1197 31.3185 17.2005 31.3185 17.2005C31.3185 17.2016 31.6585 17.4057 31.6585 17.4057L32.0259 17.5312C32.0366 17.5315 32.5624 17.449 32.5624 17.449L32.5939 17.4447L32.4337 17.2331C32.4248 17.2262 32.1604 17.1439 32.1598 17.1439C32.1598 17.1425 31.9416 16.9811 31.9416 16.9811L31.6164 16.7525C31.6117 16.75 31.369 16.6674 31.369 16.6674C31.365 16.666 30.9823 16.6048 30.9811 16.6045C30.9811 16.6004 30.7929 16.4273 30.7889 16.4244C30.7947 16.4232 30.8065 16.3629 30.8108 16.3355L31.0131 16.3921L31.2735 16.5162L31.6432 16.6334L31.5615 16.4703L31.4178 16.3202L31.292 16.158L31.3465 16.1444C31.3465 16.1493 31.7399 16.3499 31.7399 16.3499L32.0464 16.4544C32.0464 16.4561 32.2831 16.6781 32.2831 16.6781C32.2865 16.681 32.7345 16.9338 32.7345 16.9338L32.7795 16.9592L32.6978 16.7404C32.6955 16.7355 32.4525 16.4247 32.4525 16.4247L32.2502 16.0749C32.2484 16.0708 31.8822 15.6982 31.8822 15.6982C31.8787 15.6948 31.4126 15.4457 31.4114 15.4457C31.4114 15.4437 31.2339 15.2425 31.2339 15.2425C31.1253 15.132 31.0169 15.0213 30.9087 14.9103C30.9087 14.906 30.8755 14.7923 30.8584 14.7345C30.9136 14.7521 31.1742 14.8387 31.1742 14.8387L31.539 14.9418C31.539 14.9426 31.7993 15.1048 31.7993 15.1048C31.7993 15.1066 32.0164 15.3701 32.0164 15.3701C32.0242 15.3761 32.3699 15.5216 32.3699 15.5216L33.2511 15.6359L33.3025 15.6422L33.0606 15.3877C33.0545 15.3831 32.5876 15.1755 32.5876 15.1755L32.3073 14.9712C32.3073 14.9674 32.1506 14.6863 32.1506 14.6863L31.9872 14.3966C31.9843 14.3922 31.7206 14.1437 31.7206 14.1437C31.7165 14.1408 31.3918 13.9544 31.3918 13.9544L31.0706 13.6871C31.0706 13.6845 30.9932 13.5244 30.9439 13.4176L31.167 13.6326L31.5933 14.0058C31.5985 14.009 31.9237 14.1541 31.9237 14.1541L32.2023 14.3792L32.5258 14.7094C32.5371 14.7146 33.0427 14.7859 33.0427 14.7859L33.1059 14.7951L32.5925 14.3504C32.5925 14.3423 32.4764 13.9859 32.4764 13.9859C32.3876 13.8994 32.298 13.8139 32.2074 13.7293L32.0678 13.5651C32.0678 13.5607 31.9286 13.1367 31.9286 13.1367C31.833 13.0372 31.7366 12.9384 31.6395 12.8403C31.6395 12.838 31.1756 12.4054 31.1745 12.4037V12.4028C31.1745 12.3962 31.158 12.3301 31.1485 12.2865C31.184 12.3044 31.2325 12.3301 31.2325 12.3301L31.6582 12.578C31.6622 12.58 32.1691 12.7249 32.1691 12.7249L32.6978 12.8502L33.3088 12.9477L33.1651 12.6571C33.155 12.6478 32.8511 12.524 32.8511 12.524L32.5691 12.3595C32.5662 12.3586 32.2219 12.2132 32.2219 12.2132L31.9185 12.0891C31.9185 12.0862 31.7217 11.8322 31.612 11.6919C31.7174 11.7626 31.8799 11.8732 31.8799 11.8732C31.8877 11.8758 32.1532 11.8968 32.1532 11.8968L32.9858 11.8971C32.9858 11.8994 33.323 12.0816 33.323 12.0821C33.323 12.0833 33.6104 12.3933 33.6104 12.3933L33.6482 12.434L33.6133 12.0842C33.6098 12.0741 33.4271 11.8458 33.4271 11.8458C33.422 11.8417 32.9339 11.5722 32.9339 11.5722L32.546 11.4261C32.5431 11.4252 31.9587 11.3219 31.9558 11.3219V11.3211C31.9558 11.3156 31.8441 11.1825 31.8441 11.1825C31.8418 11.1814 31.4163 10.7877 31.4163 10.7877C31.3476 10.7518 31.2786 10.7163 31.2094 10.6812C31.2094 10.68 31.1445 10.6134 31.1041 10.5712H31.3228C31.3228 10.5747 31.6582 10.7761 31.6582 10.7761C31.6611 10.7782 32.1087 10.9225 32.1087 10.9225L32.6799 11.0059H32.6793C32.6793 11.0119 32.8912 11.2492 32.8912 11.2492L33.2 11.4388C33.3171 11.4604 33.4344 11.4813 33.5518 11.5014L33.6009 11.5092L32.8782 10.6238C32.8736 10.6194 32.5281 10.4333 32.5281 10.4333C32.5252 10.4315 32.12 10.3071 32.12 10.3071C32.12 10.3028 31.7633 9.89817 31.7633 9.89817C31.7592 9.89384 31.3124 9.62514 31.3124 9.62514C31.2045 9.59781 31.0962 9.57145 30.9878 9.54605C31.008 9.51344 31.0752 9.40261 31.0752 9.40204C31.0764 9.40521 31.4331 9.24387 31.4331 9.24387C31.4331 9.24474 31.9561 9.1417 31.9561 9.1417C31.9702 9.12958 32.0097 9.00461 32.0097 9.00461C32.0031 8.98354 31.7797 8.83865 31.7797 8.83865C31.6906 8.80971 31.6013 8.78124 31.5119 8.75322C31.4954 8.75524 31.354 8.83808 31.354 8.83865C31.354 8.83606 30.9165 8.85597 30.9165 8.85597C30.9165 8.85568 30.3935 8.73273 30.3935 8.73215C30.3935 8.72956 29.8546 8.28047 29.8546 8.28047C29.7722 8.238 29.6895 8.19586 29.6067 8.15405C29.6007 8.1529 28.7106 8.04871 28.7082 8.04871C28.7082 8.03745 28.499 7.72517 28.499 7.72517L28.2127 7.4123C28.2115 7.41057 27.8482 7.0827 27.8482 7.0827L27.8369 7.10666L27.7151 7.37623C27.7157 7.37363 27.595 7.56008 27.595 7.56008V7.56469C27.595 7.59904 27.6121 7.77914 27.6121 7.77914C27.6173 7.79039 27.735 7.91104 27.7376 7.9145C27.7316 7.9145 27.6932 8.1021 27.6932 8.10354C27.692 8.09056 27.2048 8.11047 27.204 8.11047C27.204 8.10816 26.806 7.92547 26.806 7.92547C26.8034 7.92374 26.4983 7.82041 26.4983 7.82041C26.4922 7.81839 25.7825 7.84032 25.7825 7.84032C25.7669 7.84841 25.6466 8.03485 25.6466 8.03485L25.6304 8.05939L25.9427 8.10441C25.9427 8.10556 25.9889 8.135 26.0146 8.15145L25.9346 8.21668C25.9346 8.21264 25.5003 8.19273 25.5003 8.19273C25.493 8.19388 25.1874 8.3177 25.1874 8.3177L25.1557 8.33126L25.3072 8.43315C25.3167 8.43661 25.9658 8.4571 25.9658 8.4571L26.4478 8.58121V8.58178C26.4478 8.58842 26.5396 8.71945 26.5396 8.71945C26.5396 8.71945 26.6048 8.81152 26.6293 8.8476L26.423 8.96132C26.4256 8.96103 25.8365 9.20953 25.8365 9.20953L24.6188 9.89326C24.6177 9.89211 23.817 10.0116 23.817 10.0116C23.811 10.0136 23.5036 10.1848 23.5036 10.1848C23.497 10.1894 23.2502 10.5314 23.2502 10.5314C23.2476 10.5357 23.1079 10.9614 23.1079 10.9614C23.0969 11.6847 23.1258 11.7015 23.1362 11.7072C23.1601 11.7222 23.3691 11.8406 23.5307 11.754C23.7137 11.6544 24.1054 11.5566 24.3088 11.5133C24.4093 11.4928 24.4563 11.5289 24.4647 11.5661C24.4757 11.6068 24.4454 11.6622 24.3703 11.6827L24.3282 11.6951C23.9743 11.7912 23.6133 11.9075 23.6251 12.044L23.6875 12.1482C23.8453 12.2634 24.2557 12.2088 24.4736 12.1595L24.7011 12.0957C24.8973 12.036 25.1204 11.9693 25.3109 11.9906C25.4209 12.0033 25.5179 12.0507 25.6324 12.1047C25.7877 12.1797 25.9652 12.2648 26.2299 12.2822C26.6712 12.3127 26.9725 12.4019 26.9962 12.4279C27.0553 12.5483 27.0172 12.7263 26.9875 12.8695L26.9647 12.9991C26.8412 14.1192 25.5906 15.3857 24.988 15.9932C24.8252 16.1577 24.7175 16.2662 24.6944 16.3115L24.6252 16.4717C24.5666 16.6204 24.519 16.7485 24.3279 16.8253C24.2174 16.8683 23.9596 17.0622 23.6606 17.2862C23.2288 17.6083 22.6935 18.0089 22.546 17.9916C22.2992 17.9624 21.1468 17.169 21.0983 17.1202C19.9758 16.0342 19.5062 16.257 19.2251 16.3898L19.1807 16.4105C18.8459 16.5629 18.4944 17.5113 18.4626 17.7148L18.327 18.299L18.2228 18.7281C18.1919 18.8733 18.0536 19.23 17.9217 19.5747L17.651 20.3251C17.6063 20.4988 17.4978 20.743 17.4094 20.9404L17.2897 21.2328C17.2063 21.5759 17.2048 23.4554 17.35 23.6217L17.3563 23.6286L17.3849 23.6369C17.5307 23.6219 17.8435 23.2996 17.9936 23.144L18.0282 23.1079C18.1552 22.9803 18.29 22.6398 18.29 22.4966C18.29 22.3564 18.2245 22.0631 18.1985 21.9832C17.9953 21.3626 18.0721 20.7713 18.109 20.4878L18.1238 20.3614C18.1344 20.2298 18.2663 20.0841 18.3945 19.9444L18.5564 19.7571C18.6453 19.6387 18.744 19.5995 18.832 19.5646L18.9766 19.482L18.9991 19.4586C19.095 19.3625 19.2557 19.2003 19.3262 18.9833L19.4635 18.389L19.4936 18.2303C19.5005 18.1985 19.5166 18.1809 19.5435 18.1751C19.598 18.163 19.6797 18.2063 19.7146 18.2528L20.7081 19.4055C20.9626 19.6223 21.2241 19.8809 21.2241 19.9377L21.2238 19.9426C21.2238 19.9418 21.2178 19.9429 21.2178 19.9429C21.0786 19.9574 20.3787 19.8081 20.2624 19.775C19.3114 19.4961 18.8774 19.5452 18.5426 19.9643C18.161 20.4443 18.2811 21.9142 18.359 22.0752C18.4306 22.2213 18.7786 24.0122 18.7942 24.2508C18.8098 24.4849 18.9004 24.9034 18.9951 24.9995L19.0211 25.0261C19.1383 25.1421 19.4471 25.4524 19.5016 25.7583C19.5605 26.0914 20.2679 26.9832 20.5378 27.0631C20.558 27.069 20.5793 27.07 20.6 27.0659C20.6207 27.0619 20.6401 27.053 20.6567 27.04C20.8625 26.894 20.956 26.1802 20.9672 25.8789C20.9805 25.5034 20.8457 25.3219 20.7026 25.1277L20.6477 25.0518C20.5424 24.908 20.3568 24.8558 20.2344 24.8214C20.1822 24.8067 20.1106 24.7894 20.1106 24.7732C20.1106 24.7678 20.0962 24.2176 19.9207 24.1114C19.7842 24.0274 19.6445 23.4967 19.628 23.2946C19.6122 23.0941 19.5345 22.6098 19.4303 22.397C19.325 22.1835 19.2364 21.7898 19.2814 21.4862C19.3002 21.3557 19.3931 21.3147 19.4687 21.3029C19.5992 21.2821 19.7498 21.3384 19.7732 21.384C19.8252 21.4885 20.8281 22.0934 21.1664 22.2233C21.3765 22.303 21.6608 22.5431 21.9119 22.7572C22.0905 22.907 22.2441 23.036 22.3399 23.0819C22.4692 23.1443 22.8357 23.1515 23.1301 23.1573C23.2863 23.1599 23.4485 23.1636 23.4704 23.1766C23.3509 23.2245 23.3524 23.434 23.3622 23.5016C23.4843 24.3683 26.6374 26.7491 26.8813 26.8827C27.1636 27.0343 28.176 28.0915 28.2646 28.2352C28.3564 28.3772 28.4456 28.5316 28.4286 28.6505C28.4043 28.8263 28.4748 29.0272 28.6156 29.1911C28.7504 29.3438 28.9262 29.4359 29.0886 29.4359C29.2295 29.4359 29.3236 29.3094 29.3931 29.2182L29.4079 29.1992C29.596 28.9501 29.8751 28.5853 29.9112 28.0147C29.9496 27.4297 30.2169 27.1973 30.304 27.182C30.343 27.1748 30.3716 27.1867 30.3819 27.2123C30.3926 27.2389 30.3796 27.2833 30.3268 27.3183C30.2114 27.3965 30.1392 27.6554 30.0601 27.9322C30.0596 27.9345 30.0307 28.2147 30.0307 28.2147C30.0241 28.424 30.016 28.6612 29.807 28.8912C29.4942 29.2301 29.1351 30.0114 29.0422 30.9979C28.9859 31.5921 29.2534 32.4482 29.837 33.5391L29.8777 33.6171L30.0356 33.882C30.1952 34.1386 30.4619 34.5652 30.4495 34.665C30.4325 34.8059 30.4192 34.9164 30.1762 35.2215C29.9089 35.5569 28.9337 36.6917 28.8384 36.7096C28.6445 36.7096 28.6118 36.7344 28.4557 36.8528L28.2912 36.978C28.1111 37.1059 28.0796 37.2017 28.0493 37.2863C28.0271 37.35 28.006 37.4057 27.9223 37.4684L27.8597 37.5105C27.8467 37.5218 27.8115 37.5714 27.4196 37.9636C26.9702 38.4078 26.7696 38.9106 26.8389 39.4102C26.8611 39.5663 26.9956 39.6209 27.3945 39.6391C27.7928 39.6575 28.7059 39.0185 28.7466 38.8104L28.7608 38.7311C28.7957 38.5435 28.8543 38.2271 28.9576 38.1815C29.0823 38.127 29.2959 37.8805 29.4526 37.7013L29.4829 37.6675C29.5663 37.5711 29.5865 37.4753 29.6064 37.3841C29.6235 37.3119 29.639 37.2392 29.6864 37.1728C29.7236 37.1243 29.7782 37.0978 29.8414 37.0686C29.9626 37.0106 30.1153 36.9367 30.2252 36.6605C30.3346 36.3898 30.9875 35.9214 31.4643 35.5805C31.7079 35.4074 31.8989 35.2688 31.9445 35.2079C32.0071 35.1262 32.0455 34.9689 32.0455 34.8021C32.0455 34.6041 31.9924 34.3934 31.868 34.2763C31.6871 34.1083 31.5168 33.6084 31.466 33.4517V33.4482C31.466 33.3833 31.4599 33.2644 31.4501 33.043C31.449 33.0329 31.449 33.0222 31.449 33.0127C31.449 32.4271 32.3194 31.8542 32.6952 31.6074L32.8667 31.4891C34.2292 30.2873 34.4959 29.3735 34.5464 29.1227L34.5741 28.8223C34.5825 28.6142 34.5894 28.4159 34.715 28.3899C34.764 28.3804 34.8457 28.4199 34.8953 28.4791C34.9236 28.5111 34.9652 28.5778 34.9375 28.6549C34.8754 28.8234 34.8546 30.5179 34.8541 30.5883C34.8587 30.6001 35.0007 30.7675 35.0007 30.7675L35.0267 30.7978L35.0345 30.7583C35.0362 30.7387 35.1144 30.2769 35.1144 30.1135C35.1144 29.9308 35.4082 29.1484 35.4792 29.1348C35.4792 29.1371 35.4838 29.1438 35.4838 29.1438C35.5182 29.252 35.5621 29.5193 35.5621 29.801C35.5621 30.0777 35.5202 30.3687 35.3857 30.5372C35.1817 30.7898 35.0192 31.1895 34.9132 31.4533L34.8151 31.6775C34.804 31.7086 34.7992 31.7416 34.801 31.7745C34.801 31.9893 34.9115 32.447 34.9842 32.5321C35.0033 32.5523 35.0186 32.5523 35.0293 32.5486C35.0529 32.5396 35.0743 32.5091 35.0743 32.3292C35.0743 31.6444 35.6498 31.1476 35.6567 31.1439C36.1641 30.7413 36.2747 29.9946 36.2747 29.4258C36.2747 28.9951 36.2114 28.6664 36.2097 28.6575C36.1295 28.5385 36.0483 28.4201 35.9661 28.3025C35.978 28.3082 36.044 28.254 36.066 28.2364C36.0879 28.2646 36.3191 28.5712 36.3191 28.5712C36.3581 28.6257 36.4568 28.7847 36.4568 28.8479C36.4568 29.2003 36.511 29.4416 36.5497 29.6185L36.5592 29.6604C36.5999 29.848 36.8536 30.4475 36.8649 30.4731L36.892 30.5364L36.9004 30.4677C36.9004 30.4648 36.9405 30.1513 36.9004 29.8832C36.8773 29.7328 36.9061 29.5484 36.9353 29.3493L36.9815 28.8921C36.9815 28.5206 36.9284 28.286 36.7959 28.0724L36.7284 27.97C36.7018 27.9281 36.6758 27.8871 36.6787 27.8788L36.7284 27.8574C37.8 27.4937 38.2987 26.7047 38.5019 26.2677C38.7149 25.8048 38.7262 25.0919 38.7262 24.9548C38.7262 24.7761 38.7184 23.8497 38.5628 23.3737C38.4716 23.0929 38.5008 22.7913 38.5314 22.4657L38.5645 21.9084C38.5645 21.5272 38.7651 21.244 38.9597 20.9704L39.1914 20.6114C39.3429 20.3124 39.2624 20.0506 39.2015 19.9758Z" fill="#86898F"/>
<path fill-rule="evenodd" clip-rule="evenodd" d="M27.2082 8.04235C27.2261 8.0435 27.4538 7.93527 27.4538 7.93527C27.4639 7.91478 27.4111 7.69918 27.4111 7.69918C27.2468 7.50425 27.0816 7.31 26.9156 7.11646L26.891 7.08789L26.8827 7.12368L26.8296 7.35717C26.8298 7.35486 26.6723 7.7318 26.6723 7.7318L26.665 7.74767L26.9969 7.91738L27.2082 8.04235Z" fill="#86898F"/>
<path fill-rule="evenodd" clip-rule="evenodd" d="M27.3066 9.53823C27.3591 9.55786 27.4385 9.5492 27.5135 9.51572C27.6284 9.46175 27.6962 9.36939 27.6671 9.3033L27.6142 9.25568C27.5623 9.23576 27.4829 9.24471 27.409 9.27877C27.3106 9.32264 27.2477 9.39566 27.2477 9.45771C27.2477 9.46897 27.2509 9.48109 27.2546 9.49061L27.3066 9.53823ZM29.2891 8.72L29.3838 8.77109C29.3914 8.78748 29.4025 8.80195 29.4165 8.81344C29.4304 8.82493 29.4468 8.83314 29.4643 8.83747C29.4845 8.84169 29.5053 8.84128 29.5253 8.83628C29.5453 8.83128 29.5639 8.82182 29.5797 8.80861C29.6051 8.78869 29.6112 8.75146 29.595 8.70442C29.5696 8.6262 29.488 8.54077 29.3999 8.54077C29.2865 8.54077 29.1829 8.55376 29.1829 8.63746C29.1832 8.6845 29.2371 8.7024 29.2891 8.72ZM29.4025 9.05451C29.3587 9.08684 29.3393 9.13042 29.3517 9.17458L29.3607 9.21123C29.3719 9.25452 29.376 9.26347 29.4158 9.26809L29.488 9.28108C29.5803 9.30474 29.7264 9.24731 29.7595 9.17342C29.7708 9.14947 29.7797 9.103 29.7168 9.05913C29.6086 8.98697 29.4753 9.00256 29.4025 9.05451ZM29.6978 10.3391C29.6712 10.3264 29.6825 10.2843 29.703 10.2231C29.7194 10.1732 29.7344 10.1253 29.7087 10.099C29.6862 10.0774 29.6461 10.0791 29.578 10.1045C29.3327 10.1928 29.2952 10.4428 29.268 10.6255L29.2597 10.6817C29.2455 10.7631 29.2874 10.7908 29.3133 10.8001C29.3979 10.8301 29.5506 10.7533 29.5849 10.6947C29.6233 10.6315 29.8352 10.5738 29.9896 10.5317L30.0487 10.5155C30.1203 10.4959 30.157 10.4684 30.1622 10.4312C30.17 10.3824 30.116 10.338 30.0681 10.3094C30.0236 10.2832 29.9575 10.3019 29.8883 10.3218C29.8196 10.3406 29.7457 10.3599 29.6978 10.3391ZM27.1048 10.4329C27.1591 10.4275 27.2015 10.4064 27.2284 10.3677C27.3066 10.2511 27.3106 10.086 27.2347 9.93624C27.1614 9.79337 27.0359 9.70188 26.9077 9.69726L26.9094 9.69784L26.8814 9.69409L26.6454 9.71256C26.5207 9.74027 26.4049 9.83233 26.3769 9.92296C26.3628 9.96885 26.3709 10.0107 26.4023 10.0422C26.5917 10.2427 26.9187 10.4471 27.1048 10.4329ZM24.78 10.243C24.8083 10.3126 24.9379 10.3204 25.1281 10.2638L25.1699 10.2511L25.5108 10.1178L26.0046 9.79308C26.0191 9.78183 26.1481 9.68485 26.1215 9.6228C26.1028 9.5821 26.0384 9.58932 25.9919 9.59798C25.8557 9.6228 25.7221 9.68832 25.5798 9.75758L25.3789 9.85081L25.2903 9.88717C24.9847 10.0136 24.7341 10.127 24.78 10.243ZM23.7416 10.6044C23.6388 10.6044 23.5926 10.6601 23.5551 10.7094L23.5092 10.7614C23.4302 10.8292 23.4059 10.9932 23.4157 11.1178C23.4198 11.1698 23.4345 11.2639 23.4856 11.2939C23.5834 11.3542 23.6302 11.3118 23.73 11.2168L23.8074 11.1505C23.9055 11.0682 24.0195 10.975 24.0337 10.8315C24.0406 10.7709 24.0262 10.721 23.9924 10.6835C23.9323 10.6182 23.8227 10.6044 23.7416 10.6044ZM24.3096 10.6497C24.2801 10.6434 24.2625 10.6526 24.2533 10.6621C24.2236 10.6913 24.2357 10.7536 24.2449 10.8035L24.2507 10.8385L24.2446 10.8595C24.238 10.8774 24.2305 10.9002 24.2446 10.9196C24.2573 10.9389 24.2882 10.9473 24.3407 10.9473C24.4074 10.9478 24.4141 10.9409 24.4366 10.8815L24.4545 10.8356C24.4706 10.7952 24.4709 10.7588 24.4556 10.7299C24.4282 10.6791 24.3601 10.6598 24.3096 10.6497ZM24.8588 11.5398C24.8937 11.5382 24.9266 11.5232 24.9507 11.498C24.9748 11.4727 24.9882 11.4392 24.9882 11.4043C24.9882 11.3694 24.9748 11.3358 24.9507 11.3106C24.9266 11.2854 24.8937 11.2704 24.8588 11.2688C24.8412 11.2689 24.8238 11.2725 24.8075 11.2794C24.7913 11.2862 24.7766 11.2963 24.7643 11.3088C24.7519 11.3214 24.7422 11.3363 24.7356 11.3527C24.7291 11.369 24.7258 11.3865 24.726 11.4041C24.726 11.4789 24.7852 11.5398 24.8588 11.5398ZM27.3331 11.2096C27.3141 11.2061 27.2944 11.2078 27.2762 11.2146C27.2581 11.2214 27.2421 11.2331 27.2301 11.2483C27.1934 11.291 26.9703 11.444 26.8073 11.556L26.5969 11.7055L26.5798 11.7219C26.5536 11.7467 26.5406 11.762 26.5576 11.8134L26.5833 11.8495L26.6387 11.8382L26.7207 11.8079L26.8387 11.7895C26.955 11.7744 27.0823 11.7571 27.1424 11.6957L27.2206 11.5678L27.3369 11.3811C27.3926 11.3196 27.3955 11.2774 27.3877 11.2535C27.3832 11.2421 27.3758 11.232 27.3662 11.2243C27.3567 11.2166 27.3453 11.2116 27.3331 11.2096ZM27.5776 11.9641C27.5776 12.033 27.6119 12.0602 27.6313 12.0697C27.6835 12.0974 27.7586 12.0706 27.8033 12.0082L27.9545 11.8766C28.0365 11.8177 28.128 11.7514 28.2091 11.6483C28.2841 11.5516 28.2518 11.4922 28.225 11.4668C28.1736 11.4166 28.068 11.405 28.0322 11.4345L27.9886 11.4642C27.8896 11.5285 27.6552 11.6806 27.5964 11.8656C27.5847 11.8972 27.5784 11.9305 27.5776 11.9641ZM28.5629 11.8896C28.5321 11.8446 28.4789 11.8258 28.4394 11.8452L28.3329 11.926C28.2579 11.9872 28.1644 12.0648 28.0833 12.0876C27.8864 12.1404 27.6194 12.2284 27.603 12.3635L27.6027 12.3811C27.6027 12.4184 27.6194 12.4406 27.6356 12.453C27.7104 12.5139 27.8919 12.4778 28.0232 12.4282C28.2247 12.3537 28.347 12.2628 28.5052 12.1191C28.6025 12.0304 28.5981 11.9418 28.5629 11.8896ZM27.7975 13.4453L27.7334 13.438C27.5678 13.4822 27.2849 13.9694 27.0864 14.3325L27.0509 14.3954L26.4557 15.5123L26.269 15.8679C26.2482 15.9002 26.2554 15.9476 26.2866 15.9784C26.3155 16.0073 26.366 16.0232 26.4272 15.9845C26.5264 15.9184 26.8887 15.5591 27.0566 15.2768L27.2803 14.9683C27.4238 14.781 27.5871 14.5714 27.6829 14.3218L27.7167 14.2358C27.9438 13.6467 27.9793 13.5567 27.7975 13.4453ZM30.0355 11.2982C30.0185 11.2978 30.0017 11.3008 29.9859 11.3069C29.9701 11.3131 29.9556 11.3222 29.9434 11.334C29.9311 11.3457 29.9213 11.3597 29.9145 11.3752C29.9076 11.3907 29.9039 11.4074 29.9036 11.4244C29.9036 11.4939 29.9627 11.5505 30.0355 11.5505C30.1082 11.5505 30.1662 11.4939 30.1662 11.4244C30.1659 11.4075 30.1623 11.3908 30.1556 11.3753C30.1489 11.3598 30.1392 11.3458 30.127 11.3341C30.1149 11.3224 30.1006 11.3132 30.0848 11.307C30.0691 11.3009 30.0523 11.2979 30.0355 11.2982ZM29.9728 11.8244C29.9728 11.8942 30.032 11.9508 30.1047 11.9508C30.1215 11.951 30.1382 11.9479 30.1537 11.9416C30.1693 11.9354 30.1835 11.9261 30.1955 11.9143C30.2074 11.9026 30.217 11.8886 30.2236 11.8732C30.2301 11.8577 30.2336 11.8412 30.2337 11.8244C30.2334 11.7905 30.2196 11.7582 30.1954 11.7345C30.1712 11.7108 30.1386 11.6977 30.1047 11.698C30.0705 11.6974 30.0375 11.7104 30.0128 11.7341C29.9881 11.7577 29.9737 11.7902 29.9728 11.8244ZM30.0941 12.104C30.0118 12.104 29.9437 12.1586 29.9437 12.2238C29.9437 12.2899 30.0118 12.3439 30.0941 12.3439C30.1775 12.3439 30.245 12.2902 30.245 12.2238C30.2453 12.1586 30.1775 12.104 30.0941 12.104ZM30.088 12.4538C29.9933 12.4538 29.9177 12.5136 29.9177 12.5872C29.9177 12.6602 29.9933 12.72 30.088 12.72C30.1827 12.72 30.2571 12.6599 30.2571 12.5872C30.2571 12.5136 30.1827 12.4538 30.088 12.4538ZM30.0941 12.8977C29.9899 12.8977 29.9036 12.9598 29.9036 13.038C29.9036 13.1151 29.9899 13.1771 30.0941 13.1771C30.1988 13.1771 30.2834 13.1151 30.2834 13.038C30.2834 12.9598 30.1988 12.8977 30.0941 12.8977ZM30.0297 13.6418C30.148 13.6314 30.2349 13.5665 30.2283 13.4914L30.191 13.4233C30.1503 13.389 30.0793 13.3717 30.0072 13.3783C29.8929 13.3887 29.8083 13.4504 29.8083 13.5212L29.8089 13.5284L29.8473 13.5962C29.8888 13.6314 29.9567 13.6487 30.0297 13.6418ZM30.0231 14.1091C30.1555 14.0894 30.249 14.0167 30.2384 13.9417L30.1994 13.8793C30.1532 13.8438 30.0704 13.8297 29.9858 13.8421C29.8557 13.8603 29.7598 13.9345 29.7705 14.0095L29.8106 14.0716C29.8574 14.1073 29.9385 14.1209 30.0231 14.1091ZM29.7999 14.3345C29.7999 14.4162 29.8992 14.4814 30.0294 14.4814C30.159 14.4814 30.2571 14.4162 30.2571 14.3345C30.2571 14.2528 30.159 14.1884 30.0294 14.1884C29.8989 14.1887 29.7999 14.2528 29.7999 14.3345ZM30.2057 14.8121C30.2057 14.7256 30.0874 14.6595 29.9362 14.6595C29.7867 14.6595 29.6683 14.7256 29.6683 14.8121C29.6683 14.8982 29.7867 14.9654 29.9362 14.9654C30.0874 14.9654 30.2057 14.8982 30.2057 14.8121ZM30.0337 15.2153C30.0337 15.1308 29.9451 15.0624 29.838 15.0624C29.7292 15.0624 29.6406 15.1308 29.6406 15.2153C29.6406 15.2999 29.7292 15.3686 29.838 15.3686C29.9454 15.3686 30.0337 15.2999 30.0337 15.2153ZM29.9414 15.7196C29.9414 15.6246 29.8479 15.5464 29.7315 15.5464C29.6167 15.5464 29.5235 15.6246 29.5235 15.7196C29.5235 15.8154 29.6164 15.8924 29.7315 15.8924C29.8479 15.8924 29.9414 15.8154 29.9414 15.7196ZM29.7711 16.2102C29.7711 16.1248 29.6943 16.057 29.6008 16.057C29.5079 16.057 29.4294 16.1245 29.4294 16.2102C29.4294 16.2942 29.5076 16.3629 29.6008 16.3629C29.6943 16.3632 29.7711 16.2942 29.7711 16.2102ZM29.4761 16.5006C29.3861 16.5006 29.3116 16.569 29.3116 16.6538C29.3116 16.7378 29.3861 16.8062 29.4761 16.8062C29.5659 16.8062 29.6395 16.7375 29.6395 16.6538C29.6398 16.569 29.5659 16.5006 29.4761 16.5006ZM29.337 17.2368C29.4294 17.2368 29.5079 17.1774 29.5079 17.1038C29.5079 17.0302 29.4297 16.9716 29.337 16.9716C29.2441 16.9716 29.1679 17.0305 29.1679 17.1038C29.1679 17.1771 29.2441 17.2368 29.337 17.2368ZM29.1803 17.5592C29.266 17.5592 29.3364 17.5093 29.3364 17.4464C29.3364 17.3837 29.2672 17.3341 29.1803 17.3341C29.0905 17.3341 29.0224 17.3834 29.0224 17.4464C29.0224 17.5093 29.0928 17.5592 29.1803 17.5592ZM29.0282 17.8692C29.1099 17.8692 29.1791 17.8187 29.1791 17.756C29.1791 17.694 29.1099 17.6435 29.0282 17.6435C28.9442 17.6435 28.8778 17.694 28.8778 17.756C28.8775 17.8187 28.9442 17.8692 29.0282 17.8692ZM24.5783 17.5947L24.6054 17.5999L24.8109 17.563C24.9933 17.5226 25.2681 17.4611 25.606 17.4521C25.8531 17.4455 26.1209 17.5318 26.3155 17.5953C26.4921 17.6542 26.5801 17.6796 26.6136 17.6432C26.6347 17.6192 26.6217 17.5843 26.6101 17.5598C26.557 17.4452 26.3244 17.0686 25.5653 17.0512C25.0721 17.04 24.6701 17.3754 24.584 17.5171C24.567 17.5459 24.5624 17.5673 24.5711 17.5832L24.5783 17.5947ZM27.401 19.0216C27.4492 18.9908 27.4699 18.9362 27.4668 18.858C27.4506 18.5509 27.3683 18.516 27.1989 18.516C27.0272 18.516 26.9031 18.6883 26.9031 18.7778C26.9031 18.8617 26.9649 18.9353 27.0846 18.9954C27.1525 19.0312 27.3086 19.0822 27.401 19.0216ZM29.7298 22.7757C29.9746 22.89 30.0606 22.9307 30.0972 22.9419C30.0984 22.9419 30.0995 22.9454 30.0995 22.9454C30.0995 22.9454 30.1013 22.9439 30.1013 22.9434C30.1183 22.9486 30.1238 22.9465 30.1278 22.9408C30.1255 22.939 30.116 22.9246 30.1108 22.9206C30.1137 22.9183 30.1166 22.9122 30.1166 22.9122C30.1166 22.9122 30.1013 22.9059 30.1001 22.9044C29.9382 22.7001 28.9632 21.3138 28.7557 20.4015C28.7231 20.2511 28.6847 20.1112 28.5866 20.0552C28.5315 20.0243 28.4619 20.022 28.3774 20.0503H28.3768C28.3571 20.056 28.343 20.0722 28.3341 20.0959C28.3257 20.1216 28.3221 20.1485 28.3234 20.1755C28.3234 20.5014 28.6706 21.3984 28.784 21.5828C29.4115 22.6014 29.718 22.7688 29.7298 22.7757ZM37.6991 23.172L37.6619 23.1792C37.663 23.1849 37.6714 23.4571 37.6714 23.8066C37.6714 24.3163 37.6538 24.996 37.5655 25.3014C37.4939 25.5487 37.1658 26.0223 36.9008 26.4013C36.9008 26.4013 36.5926 26.8637 36.5926 26.8642C36.5838 26.8797 36.5793 26.8973 36.5796 26.915C36.5796 26.9606 36.6027 27.0036 36.6434 27.0305C36.6742 27.0518 36.7859 27.1067 36.9415 26.9211L37.1383 26.713C37.401 26.4509 37.7274 26.1257 37.9574 25.4076C38.2097 24.6194 37.7035 23.1855 37.6991 23.172ZM29.4882 25.7401C29.5119 25.7637 29.5503 25.7704 29.5904 25.756C29.6213 25.7453 29.6484 25.7258 29.6685 25.7C29.6885 25.6742 29.7006 25.6431 29.7033 25.6105C29.7128 25.5118 29.7815 25.3793 29.8836 25.2662C29.9369 25.2056 29.9646 25.1268 29.9609 25.0463C29.9573 24.9658 29.9225 24.8898 29.864 24.8344L29.7333 24.7822C29.6493 24.785 29.5867 24.8523 29.5832 24.8543C29.5394 25.064 29.4966 25.2739 29.4548 25.4841V25.4835C29.4424 25.5184 29.4311 25.6852 29.4882 25.7401ZM33.7396 28.0646L33.7329 28.0617L33.7263 28.0646C33.7211 28.0686 33.6114 28.1197 33.5803 28.2268C33.5589 28.299 33.5987 28.3616 33.6299 28.4133L33.6666 28.4819L33.6824 28.619L33.7073 28.8208C33.7134 28.8417 33.7265 28.8598 33.7443 28.8723C33.7621 28.8848 33.7837 28.8908 33.8054 28.8895C33.8568 28.8877 33.9165 28.8482 33.9361 28.7683C33.9627 28.66 33.9757 28.5134 33.9757 28.3183C33.9751 28.1402 33.7497 28.0669 33.7396 28.0646ZM27.1412 26.4232C27.1265 26.4062 25.5679 24.7149 25.2311 24.2719C24.888 23.8179 24.724 23.7835 24.5561 23.8765C24.5437 23.8836 24.5332 23.8935 24.5255 23.9055C24.5178 23.9175 24.5131 23.9312 24.5119 23.9455C24.4877 24.1299 24.877 24.5761 25.2179 24.9037C25.6944 25.3623 27.102 26.4403 27.1164 26.4509L27.1412 26.4232ZM21.0326 21.4316C20.7169 21.2356 20.1702 21.1268 20.1647 21.1245L20.1503 21.1577L20.7567 21.6149C20.8566 21.6968 21.2978 21.9707 21.4404 21.8587C21.4497 21.8518 21.4571 21.8427 21.462 21.8322C21.4669 21.8218 21.4692 21.8103 21.4687 21.7987C21.4641 21.7165 21.3111 21.6065 21.0326 21.4316ZM20.8845 18.8441L20.9273 18.826C20.9818 18.7645 20.8563 18.5899 20.7036 18.4487C20.5659 18.3217 20.4259 18.2398 20.3526 18.2438L20.3111 18.2617C20.3022 18.2726 20.2976 18.2864 20.2984 18.3004C20.2984 18.38 20.4075 18.5209 20.5342 18.6392C20.6721 18.7662 20.8133 18.8488 20.8845 18.8441ZM22.5048 18.6233L22.4428 18.6271C22.325 18.6764 22.138 18.9757 21.9888 19.3547C21.8837 19.6222 21.8044 19.914 21.8044 20.0898C21.8044 20.1732 21.8223 20.2298 21.8621 20.2465L21.9233 20.2428C22.041 20.1926 22.2275 19.8927 22.3784 19.5149C22.4832 19.2468 22.5617 18.955 22.5617 18.7789C22.5617 18.6961 22.5447 18.6392 22.5048 18.6233ZM19.5881 16.775C19.436 16.775 19.3148 16.8472 19.3148 16.9384C19.3148 17.029 19.436 17.1003 19.5881 17.1003C19.7425 17.1003 19.8626 17.029 19.8626 16.9384C19.8626 16.8472 19.7425 16.775 19.5881 16.775ZM18.618 18.7945L18.6654 18.7902C18.7476 18.7498 18.872 18.5261 18.9658 18.247C19.0651 17.95 19.1194 17.6311 19.0233 17.597L18.9768 17.6019C18.8931 17.6432 18.769 17.8663 18.676 18.1451C18.575 18.4424 18.5239 18.7613 18.618 18.7945ZM18.872 20.3308C18.9528 20.2226 18.969 20.1008 18.909 20.0552L18.8391 20.0402C18.7808 20.0477 18.7113 20.0967 18.6593 20.1692C18.5785 20.2774 18.5623 20.3989 18.6221 20.4437L18.6922 20.4601C18.7502 20.4512 18.8206 20.4027 18.872 20.3308ZM18.7791 22.0134L18.7724 22.0094L18.7421 22.0062C18.633 22.0316 18.7098 22.5067 18.7661 22.7566C18.846 23.1056 18.9543 23.3873 19.0293 23.434L19.0357 23.4386L19.0654 23.4418C19.1762 23.4164 19.0977 22.939 19.0417 22.6914C18.9624 22.3404 18.8553 22.0605 18.7791 22.0134ZM17.68 22.6513C17.592 22.6513 17.521 22.7165 17.521 22.7979C17.521 22.8753 17.592 22.9405 17.68 22.9405C17.7675 22.9405 17.8408 22.8753 17.8408 22.7979C17.8411 22.7165 17.7678 22.6513 17.68 22.6513ZM20.3803 26.0997C20.3316 26.0995 20.2848 26.1185 20.2501 26.1526C20.2153 26.1867 20.1954 26.2331 20.1948 26.2818C20.1948 26.3799 20.2782 26.461 20.3803 26.461C20.4288 26.4619 20.4756 26.4435 20.5106 26.4099C20.5455 26.3763 20.5657 26.3303 20.5668 26.2818C20.5661 26.233 20.5461 26.1864 20.5112 26.1523C20.4762 26.1181 20.4292 26.0992 20.3803 26.0997ZM29.509 30.904C29.5148 30.913 29.5315 30.943 29.5569 30.9401L29.5676 30.9395L29.5872 30.9101L29.7546 30.3998L29.8854 30.0598L29.9971 29.8012C30.0314 29.7143 30.0314 29.6563 29.9977 29.6226C29.944 29.5735 29.8331 29.6153 29.8196 29.6203C29.8106 29.6275 29.505 30.1377 29.505 30.1377C29.4452 30.2289 29.4227 30.3519 29.4227 30.4783C29.4227 30.6584 29.4678 30.8382 29.509 30.904ZM30.2727 33.4531L30.2788 33.4017C30.2828 33.3714 30.3746 32.6617 30.1564 32.3875C30.1341 32.3578 30.1059 32.3331 30.0735 32.3149C30.041 32.2968 30.0052 32.2856 29.9682 32.2822C29.9027 32.2761 29.8577 32.2952 29.8329 32.3364C29.6998 32.5541 30.2219 33.3737 30.245 33.4092L30.2727 33.4531ZM31.495 34.8032C31.4701 34.8029 31.4454 34.8076 31.4222 34.8168C31.3991 34.8261 31.378 34.8398 31.3602 34.8573C31.3424 34.8747 31.3282 34.8955 31.3185 34.9184C31.3087 34.9413 31.3036 34.9659 31.3034 34.9909C31.3034 35.0962 31.3891 35.1779 31.495 35.1779C31.5447 35.1779 31.5923 35.1581 31.6275 35.123C31.6626 35.0879 31.6823 35.0402 31.6823 34.9906C31.6823 34.9409 31.6626 34.8932 31.6275 34.8581C31.5923 34.823 31.5447 34.8032 31.495 34.8032ZM28.6172 32.5174C28.5274 32.5174 28.451 32.5872 28.451 32.6735C28.451 32.7621 28.5277 32.8303 28.6172 32.8303C28.709 32.8303 28.7829 32.7621 28.7829 32.6735C28.7829 32.5872 28.709 32.5174 28.6172 32.5174ZM30.7143 35.2852L30.6941 35.2806C30.5948 35.2806 30.219 35.6094 29.8987 35.9372C29.8704 35.9672 29.1748 36.6807 29.2669 36.7736L29.2721 36.7794L29.2946 36.784C29.395 36.784 29.7702 36.4541 30.0889 36.128C30.1189 36.0977 30.8156 35.3868 30.7206 35.2904L30.7143 35.2852ZM28.6256 37.2141C28.5676 37.2141 28.4766 37.2683 28.3955 37.3494C28.2986 37.4464 28.2281 37.5806 28.2801 37.6357L28.3315 37.6542C28.3906 37.6542 28.4818 37.6011 28.5626 37.5183C28.6573 37.4201 28.73 37.2888 28.6761 37.2331L28.6256 37.2141ZM27.7092 38.5345C27.6379 38.5345 27.5372 38.5931 27.4492 38.6823C27.3571 38.7746 27.3043 38.8768 27.3043 38.9478C27.3043 38.9749 27.3115 38.9969 27.3285 39.0122L27.3935 39.037C27.4636 39.037 27.5672 38.9801 27.6535 38.8904C27.7814 38.7596 27.8327 38.6196 27.7747 38.559L27.7092 38.5345ZM22.9184 31.8839C22.7811 31.8839 22.6694 31.9621 22.6694 32.0608C22.6694 32.1589 22.7813 32.2346 22.9184 32.2346C23.057 32.2346 23.1675 32.1589 23.1675 32.0608C23.1678 31.9621 23.057 31.8839 22.9184 31.8839ZM24.9474 32.0259C24.8499 32.0259 24.774 32.0784 24.774 32.1477C24.774 32.2126 24.8499 32.266 24.9474 32.266C25.0415 32.266 25.1194 32.2123 25.1194 32.1477C25.1194 32.0799 25.0415 32.0259 24.9474 32.0259ZM27.4238 32.8545L27.4388 32.8314C27.4668 32.7148 26.8826 32.5327 26.5703 32.4536C26.1954 32.3578 25.7498 32.281 25.6514 32.3402L25.6444 32.3448L25.6286 32.369C25.6003 32.4868 26.1841 32.6666 26.497 32.7483C26.8716 32.8424 27.3173 32.9168 27.4171 32.8583L27.4238 32.8545Z" fill="#86898F"/>
<path fill-rule="evenodd" clip-rule="evenodd" d="M0.979248 64.5328V63.406H1.6053C1.91818 63.406 2.54452 63.3433 2.54452 62.592V55.8304C2.54452 55.4235 2.51306 54.4531 1.73057 54.4531H1.01071L1.82466 53.0131H49.9832V54.4531H5.67506C5.26809 54.4531 4.73584 54.5469 4.73584 55.3608V57.4895C4.82994 57.7398 5.20545 57.8336 5.39335 57.8336C5.58126 57.8336 6.23848 57.8024 6.23848 56.7694H7.1777V60.2443H6.23848C6.23848 59.9311 5.89269 59.4066 5.42482 59.3677C5.04901 59.3365 4.73584 59.4615 4.73584 59.9625V62.592C4.73584 62.874 5.08018 63.406 5.89414 63.406H6.45784V64.5328H0.979248Z" fill="#86898F"/>
<path fill-rule="evenodd" clip-rule="evenodd" d="M28.7719 56.0807C28.7719 56.3312 29.0848 56.5815 29.2724 56.6441C29.4918 56.4877 30.6501 55.8304 31.5579 55.8304C32.4656 55.8304 32.9349 56.2998 32.9349 57.0199V60.4633H30.7436V57.8027C30.7436 57.4583 30.6501 57.2078 30.3366 57.1766C30.0238 57.1455 29.2098 57.8027 28.991 58.1159V62.874C28.991 63.3125 29.4292 63.6253 29.805 63.6253V64.5334H25.986V63.5942C26.3615 63.5942 26.7685 63.4689 26.8 62.9055V57.6145C26.8 57.4581 26.5495 57.0196 25.986 57.0196V56.0807H28.7719ZM54.9798 56.0807H51.1611V57.0199C51.7243 57.0199 51.9745 57.4581 51.9745 57.6148V62.9052C51.9436 63.4686 51.5364 63.5939 51.1611 63.5939V64.5331H54.9798V63.625C54.6043 63.625 54.1658 63.3122 54.1658 62.8737V57.6771C54.1658 57.3016 54.5728 57.0199 54.9798 57.0199V56.0807ZM20.3198 56.0807C20.3198 56.3312 20.6327 56.5815 20.8206 56.6441C21.0397 56.4877 22.198 55.8304 23.1057 55.8304C24.0135 55.8304 24.4831 56.2998 24.4831 57.0199V60.4633H22.2921V57.8027C22.2921 57.4583 22.198 57.2078 21.8851 57.1766C21.5719 57.1455 20.758 57.8027 20.5389 58.1159V62.874C20.5389 63.3125 20.9773 63.6253 21.3529 63.6253V64.5334H17.5339V63.5942C17.9094 63.5942 18.3164 63.4689 18.3479 62.9055V57.6145C18.3479 57.4581 18.0973 57.0196 17.5339 57.0196V56.0807H20.3198ZM45.7134 56.0807C45.7134 56.3312 46.0269 56.5815 46.2145 56.6441C46.4339 56.4877 47.5916 55.8304 48.4999 55.8304C49.4077 55.8304 49.877 56.2998 49.877 57.0199V60.4633H47.6857V57.8027C47.6857 57.4583 47.5916 57.2078 47.2787 57.1766C46.9658 57.1455 46.1519 57.8027 45.9325 58.1159V62.874C45.9325 63.3125 46.3706 63.6253 46.7464 63.6253V64.5334H42.9272V63.5942C43.3033 63.5942 43.7103 63.4689 43.7412 62.9055V57.6145C43.7412 57.4581 43.4909 57.0196 42.9272 57.0196V56.0807H45.7134ZM15.8809 61.9033H13.6896V62.7488C13.6896 63.0928 13.6269 63.8132 12.5939 63.8132C11.5609 63.8132 11.248 63.1243 11.248 62.6235V60.8391C11.248 60.6827 11.3733 60.4633 11.5924 60.4633H15.8809V58.1782C15.8809 57.1452 15.6618 56.832 15.2234 56.3939C14.7852 55.9554 13.2511 55.8304 12.5625 55.8304C10.8096 55.8304 10.2459 56.0807 9.74508 56.4877C9.2443 56.8946 9.0564 57.7398 9.0564 58.3658V61.903C9.0564 62.842 9.2443 63.4995 9.83889 64.0944C10.4335 64.6892 12.2493 64.6892 12.6251 64.6892C13.0006 64.6892 14.2527 64.7204 15.1608 64.0632C16.0688 63.406 15.8809 61.9033 15.8809 61.9033ZM11.248 58.0218C11.248 57.521 11.4044 56.7697 12.5001 56.7697C13.5958 56.7697 13.6896 57.5836 13.6896 58.0218V59.1486C13.6896 59.3362 13.5331 59.5241 13.3141 59.5241H11.6235C11.4359 59.5241 11.248 59.3677 11.248 59.1801V58.0218ZM40.987 62.8737V58.1782C40.987 57.4581 40.9555 56.707 40.2039 56.1748C39.4529 55.6425 38.232 55.674 37.7624 55.674C37.2928 55.674 35.7278 55.674 35.0073 56.488C34.2875 57.3019 34.4125 58.0844 34.4125 58.3973H36.4632C36.4632 58.3973 36.6035 57.3331 36.8855 57.0514C37.1689 56.7679 37.9188 56.4565 38.4978 56.9573C38.7108 57.142 38.7948 57.3798 38.7948 57.646V58.9919C38.7948 59.1174 38.6696 59.305 38.5134 59.305C38.5134 59.305 35.6643 59.3677 35.1638 59.7435C34.6633 60.119 34.2246 60.3695 34.2246 61.7469C34.2246 63.124 34.5689 63.6562 34.9762 63.9382C35.3831 64.2199 35.571 64.5331 37.4177 64.5331H41.8004V63.625C41.4252 63.625 40.987 63.3122 40.987 62.8737ZM38.7954 63.406C38.7954 63.4842 38.6701 63.5936 38.5766 63.5936H37.4965C36.7293 63.5936 36.5106 62.9364 36.5106 62.5291V61.3238C36.5106 60.1502 37.7312 60.1813 38.2164 60.1813C38.7016 60.1813 38.7954 60.588 38.7954 60.8541V63.406ZM52.9267 54.4375C54.0227 54.4375 54.9105 54.1044 54.9105 53.6934C54.9105 53.2827 54.0227 52.9493 52.9267 52.9493C51.8308 52.9493 50.9423 53.2824 50.9423 53.6934C50.9423 54.1041 51.8308 54.4375 52.9267 54.4375Z" fill="#86898F"/>
</svg>
