<svg width="50" height="66" viewBox="0 0 50 66" fill="none" xmlns="http://www.w3.org/2000/svg">
<path fill-rule="evenodd" clip-rule="evenodd" d="M49.9692 57.309C49.9692 59.4721 49.0984 60.7263 47.3935 61.3939C40.7716 63.986 32.9284 65.324 25.4689 65.324C18.0097 65.324 10.1672 63.986 3.54501 61.3939C1.8404 60.7263 0.969238 59.4721 0.969238 57.3097V0H49.9692V57.309Z" fill="#86898F"/>
<path fill-rule="evenodd" clip-rule="evenodd" d="M28.9319 11.4229L28.9291 11.4281C28.9312 11.4263 28.9319 11.4249 28.9319 11.4229ZM28.9361 11.4141C28.9341 11.4163 28.9327 11.419 28.9319 11.4218V11.4229L28.9361 11.4141ZM14.1113 34.8813C7.32713 30.5775 5.08655 28.6735 4.89591 25.8499C4.86274 25.2773 4.99158 24.3122 5.22692 23.6212L4.58865 23.1889C4.07678 24.0161 3.75171 25.1072 3.75171 26.1072C3.75171 27.7381 4.26463 28.9721 4.89591 29.9581C5.84878 31.4487 6.85192 32.3858 9.32154 34.2675C11.9829 36.2965 13.7988 38.6655 14.8456 41.1428H15.2234V38.3324C18.8215 40.4029 21.9909 42.3551 23.5509 45.8422H23.9287C23.318 42.2294 21.3069 39.4438 14.1113 34.8813ZM28.3945 52.4979C29.6302 52.2947 30.8114 51.3167 30.8114 49.8418C30.8114 48.5101 30.2542 47.0485 26.3973 47.0485H19.8875V47.1543C20.0852 47.2158 20.3963 47.3782 20.6009 47.5828C21.0419 48.0213 21.1885 48.676 21.2084 49.5468V59.4455H26.6026C29.5701 59.4455 31.7168 58.2985 31.7168 55.6634C31.7171 53.5199 30.0768 52.6104 28.3945 52.4979ZM25.619 48.228C26.9989 48.228 27.9347 48.5321 27.9347 50.0297C27.9347 51.6254 26.6798 52.0639 25.2493 52.0639H24.0181V48.228H25.619ZM25.7569 58.2752H24.0181V53.2116H25.678C27.9595 53.2116 28.8362 53.9019 28.8362 55.64C28.8366 57.5196 27.6927 58.2752 25.7569 58.2752ZM15.0852 59.4449H18.5991L14.1086 53.6142C15.9081 53.1268 17.2562 52.1254 17.2562 50.3094C17.2562 48.1756 16.0003 47.0482 12.714 47.0482H5.92245V47.154C6.1721 47.2441 6.45213 47.4078 6.63544 47.5932C7.1117 48.0692 7.25311 48.7937 7.25311 49.7769V59.4449H10.0722V53.9497H11.1026L15.0852 59.4449ZM10.0722 48.228H11.971C13.5527 48.228 14.3792 48.6987 14.3792 50.404C14.3792 51.9267 13.2988 52.8296 11.5687 52.8296H10.0722V48.228ZM43.118 48.7462C43.8736 49.1798 44.1019 49.7472 44.1061 49.7535C44.1417 49.7951 44.2227 49.7842 44.2227 49.7842L44.8372 47.662C44.8372 47.662 43.736 46.8579 41.1124 46.8579C37.1456 46.8579 34.1763 48.8879 34.1763 53.331C34.1763 58.3373 37.713 59.6372 40.8327 59.6372C43.7356 59.6372 44.8753 58.6994 44.8753 58.6994V57.2455C44.8753 57.2455 43.8509 58.2179 41.6519 58.2179C39.8359 58.2179 37.1707 57.3764 37.1141 53.2601C37.0604 49.4588 38.6923 48.2203 40.8771 48.2203C42.0949 48.2207 42.7046 48.5098 43.118 48.7462Z" fill="white"/>
<path fill-rule="evenodd" clip-rule="evenodd" d="M46.2872 42.8132L45.3937 45.8478H44.9349C44.9349 43.2748 42.6116 42.5751 40.1811 42.5751H32.5505C32.7953 43.8436 32.9084 45.3289 32.7188 46.7294H32.3417C31.6371 40.9504 28.4231 38.0869 23.9276 35.0224V37.6519H23.5498C22.3557 34.9379 19.7303 32.389 17.245 30.5835C16.5847 30.1037 15.8993 29.6079 15.2226 29.1166V31.9536H14.8452C13.7904 29.1404 11.8777 27.0405 9.14967 24.5419C6.20379 21.8453 5.01489 20.2329 4.32529 18.3788C3.9084 17.2566 3.78933 16.3492 3.77467 15.1152C3.74743 12.911 4.84415 10.9183 6.21252 10.1749V11.242C5.5327 12.1547 5.18144 13.308 5.18039 14.4818C5.17865 15.5649 5.43144 16.7692 5.96321 17.7964C7.62208 21.0045 13.2104 24.9417 16.7586 27.3596C27.7942 34.8785 29.9964 36.1913 31.8302 40.1809C32.0341 40.6247 32.238 41.2242 32.4063 41.9159C34.0013 41.6669 39.7844 40.7724 40.8511 40.6016C41.0557 40.5688 41.4814 40.5136 41.7024 40.5C42.6982 39.861 43.4761 39.0447 44.1573 38.0279L39.9307 37.6959C39.743 38.1184 39.5343 38.5313 39.3054 38.933H38.9604C39.0735 38.5063 39.1745 38.0766 39.2631 37.6442L38.1814 37.5611V37.3286L39.3525 37.1805C39.5625 36.0455 39.6807 34.8953 39.7059 33.7413L34.3777 33.433C34.3492 33.9539 34.344 34.4758 34.362 34.9972H34.0198C33.9101 34.4672 33.8201 33.9333 33.7499 33.3967L32.5823 33.3293V32.9665L33.6919 32.9071C33.5525 31.6059 33.5167 30.2957 33.5847 28.9888L30.4674 28.8439C30.6155 29.1215 30.7666 29.4036 30.8752 29.7119C31.547 31.6194 31.3874 33.8589 31.1657 34.8876H30.7879C30.7321 33.6962 30.3379 32.2378 29.965 31.3453C29.1029 29.2832 27.1699 27.4581 23.9283 25.3443V27.9805H23.5505C22.473 24.5171 19.79 22.5901 15.8009 20.5098C12.5086 18.7926 11.4863 16.7252 11.6734 13.5241L12.7851 14.1924C13.0697 17.1875 15.333 18.9148 17.7024 18.8967C19.0973 18.8862 20.4039 18.6983 21.6685 18.4406C23.4918 18.0663 25.18 17.7469 26.5879 18.2545V16.4867H25.4821C25.0851 16.8345 24.2824 17.236 23.1022 17.257C21.8033 17.2797 19.3469 16.5203 19.3469 13.7315C19.3469 11.3094 21.3641 10.9221 23.0065 10.9221C23.8867 10.9221 25.349 10.8914 25.8435 10.8614C26.2115 10.8387 26.4863 10.7814 26.6643 10.6034C26.8508 10.4162 26.9087 10.2249 26.951 9.97731C27.0027 9.67773 27.0027 9.37116 27.0027 8.85056V7.08171H19.3881V10.1442L16.5076 9.03248V8.29889H17.8864V7.08171H12.7495V4.53806H10.9981C10.062 4.53806 8.98347 5.20357 8.90735 6.49477C8.83437 7.7329 9.38326 8.77654 10.6378 8.77654H10.8634V10.2591H10.6378C8.43947 10.2591 6.7827 8.58171 6.7827 6.3544C6.7827 4.03492 8.72823 2.26886 11.0791 2.26886H14.7932V4.8132H29.2356V8.57089C29.2356 9.20322 29.2027 10.0552 29.142 10.5929C29.0976 10.9836 28.9611 11.6882 28.2317 12.2545C27.7925 12.5953 27.1291 12.7332 26.0505 12.7367C25.6999 12.7385 24.6755 12.721 23.4482 12.6435C21.8026 12.5388 21.3351 13.1837 21.2694 13.7818C21.2556 13.9041 21.2556 14.0275 21.2694 14.1498C22.0397 13.543 23.1305 13.1163 24.3686 13.5115C26.5477 14.2071 27.1703 14.271 28.3057 13.3638L28.4189 13.6236C28.2408 13.897 28.0178 14.1384 27.7593 14.3376H28.8131V20.1292L32.09 18.1334H41.2869C41.2869 18.1334 45.1741 20.1976 45.8145 20.5391C46.3805 20.8404 46.6008 21.2039 46.6888 21.7388C46.7624 22.1868 46.6493 22.7521 46.4325 23.1156C46.2967 23.3425 45.2425 25.102 44.6818 26.0412C46.368 27.9045 47.302 30.3278 47.3026 32.8408C47.3026 35.2678 46.4175 38.3994 43.547 40.7263C44.8319 41.1519 45.6462 41.8694 46.2872 42.8132ZM24.8529 14.6505C23.5599 14.3624 22.8407 14.5251 22.0987 15.243C22.4615 15.4204 22.9161 15.5164 23.4196 15.4794C24.1441 15.4277 24.5955 14.985 24.8529 14.6505ZM24.1064 22.9965L27.7467 20.779C27.0317 20.4207 26.2411 20.1903 25.303 20.1774C24.0498 20.1589 21.9314 20.7448 20.9073 20.9036C21.3661 21.2214 22.9918 22.2762 24.1064 22.9965ZM40.3588 23.2311L40.862 22.5115L40.0805 21.4543L40.2115 21.22L42.4087 22.4228L41.93 23.8974C42.2834 24.0719 42.6092 24.2902 43.0435 24.5831L44.4625 22.213L40.7883 20.2605H32.6654L26.0732 24.2898C27.3113 25.1627 28.4503 26.1068 29.2604 27.0601C31.0268 24.448 34.1301 22.7821 37.2031 22.7821C38.2094 22.7825 39.3791 22.8904 40.3588 23.2311ZM39.6968 32.5852C39.6587 31.4658 39.5256 30.3518 39.2991 29.2549L34.9953 29.0545C34.7 30.3869 34.5058 31.6851 34.4143 32.8687L39.6968 32.5852ZM41.1458 29.3408C41.2848 30.4696 41.2988 31.5269 41.2268 32.5035L45.4925 32.2751C45.3849 31.3138 45.1151 30.3776 44.6947 29.5063L41.1458 29.3408ZM38.9726 27.9225C38.5275 26.3593 37.9953 25.272 37.7164 24.7608C37.5365 24.7496 37.3564 24.7441 37.1762 24.7444C36.878 24.7444 36.5746 24.7846 36.2841 24.8146C35.8594 25.8979 35.5026 27.0067 35.216 28.1344L38.9726 27.9225ZM40.1556 25.2985C40.4584 26.1194 40.7032 26.9605 40.8881 27.8156L43.4939 27.669C42.5939 26.6154 41.447 25.801 40.1556 25.2985ZM44.9513 36.4696C45.2562 35.7161 45.4534 34.993 45.5065 34.0765L41.0753 33.8209C40.899 34.9345 40.6027 36.0259 40.1916 37.0758L44.9513 36.4696ZM34.0208 25.4724C32.5376 26.1487 31.5138 27.066 30.6015 28.3834L33.6336 28.2231C33.7432 26.853 33.9199 25.9438 34.0208 25.4724Z" fill="white"/>
</svg>
