<svg width="84" height="45" viewBox="0 0 84 45" fill="none" xmlns="http://www.w3.org/2000/svg">
<path d="M45.4963 1H36.4642L53.6816 32.4441L62.3081 18.56C76.9566 15.156 79.2789 31.0328 70.8828 37.9128H51.2325L36.4642 11.313H13.0047C-8.00278 21.5046 2.82092 42.1466 13.0047 43.9244H25.866L31.5825 36.6779L34.2621 43.9244H43.0154L31.5825 24.1529L23.0086 36.6779C9.78841 42.1466 2.99997 23.6237 13.0047 18.56H33.3695L47.6607 43.9244H71.7374C93.8006 33.8096 80.1591 2.69404 58.4799 11.313L53.6816 18.56L45.4963 1Z" fill="#86898F"/>
<path d="M71.5709 44C93.8689 33.9657 80.2134 2.67244 58.4799 11.313L53.6816 18.56L45.4963 1H36.4642L53.6816 32.4441L62.3081 18.56C76.9566 15.156 79.2789 31.0328 70.8828 37.9128H51.2325L36.4642 11.313H13.0047C-8.00278 21.5046 2.82092 42.1466 13.0047 43.9244H25.866L31.5825 36.6779L34.2621 43.9244H43.0154L31.5825 24.1529L23.0086 36.6779C9.78841 42.1466 2.99997 23.6237 13.0047 18.56H33.3695L47.6607 43.9244H71.9461" stroke="#86898F"/>
</svg>
