<svg width="78" height="53" viewBox="0 0 78 53" fill="none" xmlns="http://www.w3.org/2000/svg">
<g clip-path="url(#clip0_69_960)">
<path d="M24.4676 33.0355H27.7756V45.9733H24.4676V33.0355ZM54.0333 36.7616C53.9299 36.6581 52.8961 36.0371 51.2421 36.0371C49.1746 36.0371 47.6239 37.4861 47.6239 39.4527C47.6239 41.4192 49.0712 42.8683 51.2421 42.8683C52.7928 42.8683 53.8265 42.2472 54.0333 42.1437V45.6628C53.6198 45.7663 52.4826 46.0768 51.0354 46.0768C47.3138 46.0768 44.1091 43.5928 44.1091 39.3492C44.1091 35.5196 47.0037 32.6215 51.0354 32.6215C52.586 32.6215 53.7232 33.0355 54.0333 33.0355V36.7616ZM19.919 36.7616C19.8156 36.6581 18.7819 36.0371 17.1279 36.0371C15.0603 36.0371 13.5097 37.4861 13.5097 39.4527C13.5097 41.4192 14.9569 42.8683 17.1279 42.8683C18.6785 42.8683 19.7123 42.2472 19.919 42.1437V45.6628C19.5055 45.7663 18.3684 46.0768 16.9211 46.0768C13.3029 46.0768 9.99487 43.5928 9.99487 39.3492C9.99487 35.5196 12.8894 32.6215 16.9211 32.6215C18.4718 32.6215 19.6089 33.0355 19.919 33.0355V36.7616ZM71.0904 39.5562C71.0904 43.2823 68.1959 46.2838 64.2676 46.2838C60.3393 46.2838 57.4447 43.2823 57.4447 39.5562C57.4447 35.8301 60.3393 32.8285 64.2676 32.8285C68.2993 32.8285 71.0904 35.8301 71.0904 39.5562ZM64.2676 36.1406C62.3034 36.1406 60.8561 37.6931 60.8561 39.5562C60.8561 41.4192 62.3034 42.9718 64.2676 42.9718C66.2317 42.9718 67.679 41.4192 67.679 39.5562C67.679 37.6931 66.2317 36.1406 64.2676 36.1406ZM40.0775 36.0371C40.0775 36.0371 38.6302 35.6231 37.493 35.6231C36.1491 35.6231 35.4255 36.0371 35.4255 36.6581C35.4255 37.4861 36.3559 37.6931 36.8728 37.9001L37.8032 38.2107C39.8707 38.9352 40.9045 40.3842 40.9045 41.9367C40.9045 45.1453 38.0099 46.2838 35.5289 46.2838C33.7715 46.2838 32.1175 45.9733 32.0141 45.9733V42.9718C32.3242 43.0753 33.6681 43.4893 35.1154 43.4893C36.7694 43.4893 37.493 42.9718 37.493 42.2472C37.493 41.6262 36.8728 41.2122 36.0458 41.0052C35.839 40.9017 35.5289 40.7982 35.3221 40.7982C33.4614 40.1772 32.0141 39.1422 32.0141 36.9686C32.0141 34.5881 33.8749 32.932 36.8728 32.932C38.4234 32.932 39.9741 33.346 40.0775 33.346V36.0371Z" fill="#86898F"/>
<path d="M6.58357 19.1662C6.58635 18.948 6.54547 18.7314 6.46333 18.5292C6.38119 18.3271 6.25946 18.1434 6.10531 17.9891C5.95116 17.8347 5.76772 17.7128 5.56579 17.6306C5.36386 17.5484 5.14753 17.5074 4.92955 17.5102C4.71157 17.5074 4.49524 17.5484 4.29331 17.6306C4.09138 17.7128 3.90793 17.8347 3.75379 17.9891C3.59964 18.1434 3.47791 18.3271 3.39577 18.5292C3.31363 18.7314 3.27275 18.948 3.27552 19.1662V22.5818C3.27275 22.8001 3.31363 23.0167 3.39577 23.2188C3.47791 23.421 3.59964 23.6047 3.75379 23.759C3.90793 23.9133 4.09138 24.0352 4.29331 24.1175C4.49524 24.1997 4.71157 24.2406 4.92955 24.2379C5.14753 24.2406 5.36386 24.1997 5.56579 24.1175C5.76772 24.0352 5.95116 23.9133 6.10531 23.759C6.25946 23.6047 6.38119 23.421 6.46333 23.2188C6.54547 23.0167 6.58635 22.8001 6.58357 22.5818V19.1662Z" fill="#86898F"/>
<path d="M15.4741 14.7156C15.4769 14.4974 15.436 14.2808 15.3538 14.0786C15.2717 13.8764 15.15 13.6928 14.9958 13.5384C14.8417 13.3841 14.6582 13.2622 14.4563 13.18C14.2544 13.0978 14.038 13.0568 13.8201 13.0596C12.8897 13.0596 12.2694 13.7841 12.2694 14.7156V22.5818C12.2666 22.8001 12.3075 23.0167 12.3897 23.2188C12.4718 23.421 12.5935 23.6047 12.7477 23.759C12.9018 23.9133 13.0853 24.0352 13.2872 24.1175C13.4891 24.1997 13.7055 24.2406 13.9234 24.2379C14.1414 24.2406 14.3578 24.1997 14.5597 24.1175C14.7616 24.0352 14.9451 23.9133 15.0992 23.759C15.2534 23.6047 15.3751 23.421 15.4572 23.2188C15.5394 23.0167 15.5802 22.8001 15.5775 22.5818V14.7156H15.4741ZM24.4679 8.60899C24.4706 8.39075 24.4297 8.17415 24.3476 7.97198C24.2655 7.7698 24.1437 7.58613 23.9896 7.4318C23.8354 7.27746 23.652 7.15559 23.4501 7.07335C23.2481 6.99111 23.0318 6.95017 22.8138 6.95295C22.5958 6.95017 22.3795 6.99111 22.1776 7.07335C21.9757 7.15559 21.7922 7.27746 21.6381 7.4318C21.4839 7.58613 21.3622 7.7698 21.2801 7.97198C21.1979 8.17415 21.157 8.39075 21.1598 8.60899V25.7904C21.157 26.0086 21.1979 26.2252 21.2801 26.4274C21.3622 26.6296 21.4839 26.8132 21.6381 26.9676C21.7922 27.1219 21.9757 27.2438 22.1776 27.326C22.3795 27.4083 22.5958 27.4492 22.8138 27.4464C23.0318 27.4492 23.2481 27.4083 23.4501 27.326C23.652 27.2438 23.8354 27.1219 23.9896 26.9676C24.1437 26.8132 24.2655 26.6296 24.3476 26.4274C24.4297 26.2252 24.4706 26.0086 24.4679 25.7904V8.60899ZM33.3582 14.7156C33.361 14.4974 33.3201 14.2808 33.238 14.0786C33.1559 13.8764 33.0341 13.6928 32.88 13.5384C32.7258 13.3841 32.5424 13.2622 32.3405 13.18C32.1385 13.0978 31.9222 13.0568 31.7042 13.0596C31.4862 13.0568 31.2699 13.0978 31.068 13.18C30.866 13.2622 30.6826 13.3841 30.5285 13.5384C30.3743 13.6928 30.2526 13.8764 30.1704 14.0786C30.0883 14.2808 30.0474 14.4974 30.0502 14.7156V22.5818C30.0474 22.8001 30.0883 23.0167 30.1704 23.2188C30.2526 23.421 30.3743 23.6047 30.5285 23.759C30.6826 23.9133 30.866 24.0352 31.068 24.1175C31.2699 24.1997 31.4862 24.2406 31.7042 24.2379C31.9222 24.2406 32.1385 24.1997 32.3405 24.1175C32.5424 24.0352 32.7258 23.9133 32.88 23.759C33.0341 23.6047 33.1559 23.421 33.238 23.2188C33.3201 23.0167 33.361 22.8001 33.3582 22.5818V14.7156Z" fill="#86898F"/>
<path d="M42.2484 19.1662C42.2511 18.948 42.2103 18.7314 42.1281 18.5292C42.046 18.3271 41.9243 18.1434 41.7701 17.9891C41.616 17.8347 41.4325 17.7128 41.2306 17.6306C41.0287 17.5484 40.8123 17.5074 40.5943 17.5102C40.3764 17.5074 40.16 17.5484 39.9581 17.6306C39.7562 17.7128 39.5727 17.8347 39.4186 17.9891C39.2644 18.1434 39.1427 18.3271 39.0606 18.5292C38.9784 18.7314 38.9375 18.948 38.9403 19.1662V22.5818C38.9375 22.8001 38.9784 23.0167 39.0606 23.2188C39.1427 23.421 39.2644 23.6047 39.4186 23.759C39.5727 23.9133 39.7562 24.0352 39.9581 24.1175C40.16 24.1997 40.3764 24.2406 40.5943 24.2379C40.8123 24.2406 41.0287 24.1997 41.2306 24.1175C41.4325 24.0352 41.616 23.9133 41.7701 23.759C41.9243 23.6047 42.046 23.421 42.1281 23.2188C42.2103 23.0167 42.2511 22.8001 42.2484 22.5818V19.1662Z" fill="#86898F"/>
<path d="M51.1389 14.7156C51.1389 14.2764 50.9646 13.8552 50.6544 13.5446C50.3442 13.2341 49.9235 13.0596 49.4848 13.0596C49.0462 13.0596 48.6255 13.2341 48.3153 13.5446C48.0051 13.8552 47.8308 14.2764 47.8308 14.7156V22.5818C47.8308 23.021 48.0051 23.4422 48.3153 23.7528C48.6255 24.0634 49.0462 24.2378 49.4848 24.2378C49.9235 24.2378 50.3442 24.0634 50.6544 23.7528C50.9646 23.4422 51.1389 23.021 51.1389 22.5818V14.7156ZM60.0292 8.60898C60.0292 8.16977 59.855 7.74855 59.5448 7.43798C59.2346 7.12742 58.8139 6.95294 58.3752 6.95294C57.9365 6.95294 57.5158 7.12742 57.2056 7.43798C56.8955 7.74855 56.7212 8.16977 56.7212 8.60898V25.7904C56.7212 26.2296 56.8955 26.6508 57.2056 26.9614C57.5158 27.2719 57.9365 27.4464 58.3752 27.4464C58.8139 27.4464 59.2346 27.2719 59.5448 26.9614C59.855 26.6508 60.0292 26.2296 60.0292 25.7904V8.60898ZM68.9196 14.7156C68.9196 14.4981 68.8768 14.2828 68.7937 14.0819C68.7106 13.881 68.5888 13.6984 68.4352 13.5446C68.2816 13.3908 68.0992 13.2689 67.8986 13.1856C67.6979 13.1024 67.4828 13.0596 67.2656 13.0596C67.0484 13.0596 66.8333 13.1024 66.6326 13.1856C66.432 13.2689 66.2496 13.3908 66.096 13.5446C65.9424 13.6984 65.8206 13.881 65.7375 14.0819C65.6544 14.2828 65.6116 14.4981 65.6116 14.7156V22.5818C65.6116 22.7993 65.6544 23.0146 65.7375 23.2155C65.8206 23.4165 65.9424 23.599 66.096 23.7528C66.2496 23.9066 66.432 24.0286 66.6326 24.1118C66.8333 24.195 67.0484 24.2378 67.2656 24.2378C67.4828 24.2378 67.6979 24.195 67.8986 24.1118C68.0992 24.0286 68.2816 23.9066 68.4352 23.7528C68.5888 23.599 68.7106 23.4165 68.7937 23.2155C68.8768 23.0146 68.9196 22.7993 68.9196 22.5818V14.7156ZM77.81 19.1662C77.81 18.727 77.6358 18.3058 77.3256 17.9952C77.0154 17.6847 76.5947 17.5102 76.156 17.5102C75.7173 17.5102 75.2966 17.6847 74.9864 17.9952C74.6762 18.3058 74.502 18.727 74.502 19.1662V22.5818C74.502 23.021 74.6762 23.4422 74.9864 23.7528C75.2966 24.0634 75.7173 24.2378 76.156 24.2378C76.5947 24.2378 77.0154 24.0634 77.3256 23.7528C77.6358 23.4422 77.81 23.021 77.81 22.5818V19.1662Z" fill="#86898F"/>
</g>
<defs>
<clipPath id="clip0_69_960">
<rect width="77.7694" height="51.3571" fill="white" transform="translate(0.118652 0.939819)"/>
</clipPath>
</defs>
</svg>
