<svg width="103" height="40" viewBox="0 0 103 40" fill="none" xmlns="http://www.w3.org/2000/svg">
<g clip-path="url(#clip0_69_943)">
<path d="M62.0065 27.3168C57.0492 30.9937 49.8645 32.9563 43.6772 32.9563C35.0029 32.9563 27.193 29.727 21.2855 24.3561C20.8221 23.9338 21.2383 23.3596 21.7943 23.6872C28.1703 27.4215 36.0543 29.6662 44.1979 29.6662C49.6892 29.6662 55.7299 28.5228 61.2853 26.1497C62.1244 25.7917 62.827 26.7037 62.0065 27.3168Z" fill="#86898F"/>
<path d="M64.0671 24.9437C63.4353 24.128 59.8783 24.5586 58.2809 24.7495C57.7956 24.8086 57.7215 24.383 58.1596 24.0756C60.992 22.0691 65.6409 22.6484 66.1835 23.3206C66.726 23.9979 66.0419 28.6882 63.3797 30.9261C62.9719 31.2706 62.581 31.0865 62.763 30.6305C63.3611 29.129 64.7024 25.7612 64.0671 24.9437Z" fill="#86898F"/>
<path d="M58.3928 9.90837V7.95929C58.3928 7.66372 58.6153 7.46442 58.8815 7.46442H67.5608C67.8389 7.46442 68.0613 7.66709 68.0613 7.95929V9.62968C68.0579 9.90837 67.8237 10.2749 67.4075 10.8542L62.912 17.3162C64.5818 17.274 66.346 17.5257 67.8608 18.3853C68.2028 18.5796 68.2955 18.8633 68.3208 19.1437V21.2245C68.3208 21.5083 68.009 21.841 67.6822 21.6687C65.0131 20.2601 61.4663 20.1081 58.5142 21.6839C58.2142 21.8494 57.8975 21.5201 57.8975 21.2363V19.2585C57.8975 18.941 57.9025 18.3989 58.2176 17.9175L63.4276 10.3982H58.8933C58.6153 10.3982 58.3928 10.2006 58.3928 9.90837Z" fill="#86898F"/>
<path d="M26.7365 22.081H24.0961C23.845 22.0624 23.6445 21.8715 23.626 21.6283V7.99153C23.626 7.7196 23.8518 7.50341 24.1348 7.50341H26.5966C26.8527 7.51355 27.0566 7.71116 27.0751 7.95944V9.74131H27.124C27.766 8.01855 28.9724 7.2146 30.5984 7.2146C32.2514 7.2146 33.2843 8.01855 34.0257 9.74131C34.6643 8.01855 36.1168 7.2146 37.672 7.2146C38.779 7.2146 39.9905 7.674 40.7286 8.70597C41.5643 9.85278 41.3941 11.5198 41.3941 12.9808L41.3891 21.5878C41.3891 21.8597 41.1633 22.081 40.8819 22.081H38.2449C37.9804 22.0624 37.7697 21.8496 37.7697 21.5878V14.3607C37.7697 13.7847 37.822 12.3491 37.6956 11.8036C37.4984 10.8881 36.9087 10.6314 36.1437 10.6314C35.5034 10.6314 34.8362 11.0604 34.5649 11.7478C34.2936 12.4352 34.3189 13.5871 34.3189 14.3607V21.5878C34.3189 21.8597 34.0931 22.081 33.8117 22.081H31.1747C30.9068 22.0624 30.6995 21.8496 30.6995 21.5878L30.6962 14.3607C30.6962 12.8389 30.9439 10.601 29.0685 10.601C27.1712 10.601 27.2453 12.7832 27.2453 14.3607V21.5878C27.2453 21.8597 27.0195 22.081 26.7365 22.081Z" fill="#86898F"/>
<path d="M75.533 7.2146C79.4506 7.2146 81.572 10.601 81.572 14.9062C81.572 19.0645 79.2282 22.3647 75.533 22.3647C71.6862 22.3647 69.5918 18.9783 69.5918 14.7593C69.5918 10.5149 71.7132 7.2146 75.533 7.2146ZM75.555 9.99972C73.6105 9.99972 73.4875 12.6666 73.4875 14.3303C73.4875 15.9973 73.4622 19.5543 75.533 19.5543C77.5803 19.5543 77.6763 16.6847 77.6763 14.9349C77.6763 13.7847 77.6275 12.4099 77.2821 11.3188C76.9855 10.3696 76.3958 9.99972 75.555 9.99972Z" fill="#86898F"/>
<path d="M86.6511 22.081H84.0225C83.7596 22.0624 83.5473 21.8496 83.5473 21.5878L83.5439 7.94762C83.5658 7.69765 83.7849 7.50341 84.0528 7.50341H86.4994C86.7302 7.51355 86.919 7.67062 86.9712 7.88344V9.96932H87.0201C87.7581 8.10469 88.7944 7.2146 90.6175 7.2146C91.802 7.2146 92.9563 7.64529 93.6993 8.82251C94.3902 9.91359 94.3902 11.7478 94.3902 13.0669V21.6503C94.3599 21.8901 94.1408 22.081 93.8813 22.081H91.2342C90.9933 22.0624 90.7927 21.8834 90.7658 21.6503V14.2441C90.7658 12.7528 90.9377 10.5706 89.1128 10.5706C88.4708 10.5706 87.8811 11.0047 87.5879 11.6617C87.2155 12.496 87.1683 13.3253 87.1683 14.2441V21.5878C87.1633 21.8597 86.9341 22.081 86.6511 22.081Z" fill="#86898F"/>
<path d="M51.4751 15.5665V14.9923C49.566 14.9923 47.5508 15.4027 47.5508 17.6676C47.5508 18.8144 48.1405 19.5913 49.1549 19.5913C49.8963 19.5913 50.5619 19.1319 50.9814 18.3854C51.5004 17.4649 51.4751 16.6019 51.4751 15.5665ZM54.1374 22.0437C53.9622 22.2008 53.7111 22.211 53.514 22.1062C52.6378 21.3749 52.4811 21.0337 51.9992 20.3362C50.5501 21.8225 49.5256 22.2684 47.6468 22.2684C45.426 22.2684 43.6956 20.8885 43.6956 18.127C43.6956 15.9702 44.8582 14.5025 46.5095 13.7846C47.9434 13.1496 49.9452 13.0364 51.4751 12.8608V12.5179C51.4751 11.8862 51.524 11.138 51.155 10.5925C50.8331 10.1044 50.2164 9.90169 49.6739 9.90169C48.6679 9.90169 47.7698 10.4219 47.5508 11.4978C47.5053 11.7359 47.3318 11.9724 47.0925 11.9825L44.5313 11.7072C44.3156 11.6582 44.078 11.4826 44.137 11.1498C44.7285 8.02523 47.5323 7.08447 50.0412 7.08447C51.3268 7.08447 53.0051 7.42734 54.0195 8.40694C55.3034 9.61456 55.1804 11.2242 55.1804 12.9773V17.1187C55.1804 18.3618 55.6926 18.9073 56.1762 19.5812C56.3464 19.8194 56.3835 20.1082 56.1695 20.2872C55.6303 20.7399 54.6715 21.5793 54.1441 22.0505L54.1374 22.0437Z" fill="#86898F"/>
<path d="M16.8636 15.5665V14.9923C14.9545 14.9923 12.9375 15.4027 12.9375 17.6676C12.9375 18.8144 13.529 19.5913 14.5416 19.5913C15.2847 19.5913 15.9486 19.1319 16.3682 18.3854C16.8888 17.4649 16.8636 16.6019 16.8636 15.5665ZM19.5258 22.0437C19.3506 22.2008 19.0978 22.211 18.9007 22.1062C18.0245 21.3749 17.8695 21.0337 17.3859 20.3362C15.9385 21.8225 14.914 22.2684 13.0336 22.2684C10.8145 22.2684 9.08398 20.8885 9.08398 18.127C9.08398 15.9702 10.2449 14.5025 11.8979 13.7846C13.3318 13.1496 15.3336 13.0364 16.8636 12.8608V12.5179C16.8636 11.8862 16.9107 11.138 16.5434 10.5925C16.2199 10.1044 15.6032 9.90169 15.0623 9.90169C14.0547 9.90169 13.1566 10.4219 12.9375 11.4978C12.8937 11.7359 12.7185 11.9724 12.4809 11.9825L9.91805 11.7072C9.70406 11.6582 9.46648 11.4826 9.52545 11.1498C10.1152 8.02523 12.919 7.08447 15.4296 7.08447C16.7136 7.08447 18.3918 7.42734 19.4062 8.40694C20.6918 9.61456 20.5688 11.2242 20.5688 12.9773V17.1187C20.5688 18.3618 21.0811 18.9073 21.563 19.5812C21.7348 19.8194 21.7719 20.1082 21.5562 20.2872C21.0187 20.7399 20.06 21.5793 19.5326 22.0505L19.5258 22.0437Z" fill="#86898F"/>
</g>
<defs>
<clipPath id="clip0_69_943">
<rect width="85.8398" height="25.9427" fill="white" transform="translate(8.81641 7.04913)"/>
</clipPath>
</defs>
</svg>
